solid weighted_arch
facet normal 0.4938 0.8660 -0.0788
outer loop
vertex -330.0810 0.0000 4.4698
vertex -323.5687 0.0000 45.3021
vertex -283.7954 -27.0000 -2.2119
endloop
endfacet
facet normal 0.4938 0.8660 -0.0788
outer loop
vertex -323.5687 0.0000 45.3021
vertex -277.9841 -26.6263 38.3080
vertex -283.7954 -27.0000 -2.2119
endloop
endfacet
facet normal -0.9899 0.0000 0.1420
outer loop
vertex -283.7954 -27.0000 -2.2119
vertex -277.9841 -26.6263 38.3080
vertex -283.7954 27.0000 -2.2119
endloop
endfacet
facet normal -0.9899 0.0000 0.1420
outer loop
vertex -277.9841 -26.6263 38.3080
vertex -277.9841 26.6263 38.3080
vertex -283.7954 27.0000 -2.2119
endloop
endfacet
facet normal 0.4938 -0.8660 -0.0788
outer loop
vertex -283.7954 27.0000 -2.2119
vertex -277.9841 26.6263 38.3080
vertex -330.0810 0.0000 4.4698
endloop
endfacet
facet normal 0.4938 -0.8660 -0.0787
outer loop
vertex -277.9841 26.6263 38.3080
vertex -323.5687 0.0000 45.3021
vertex -330.0810 0.0000 4.4698
endloop
endfacet
facet normal 0.4930 0.8660 -0.0836
outer loop
vertex -323.5687 0.0000 45.3021
vertex -317.0526 0.0000 83.7390
vertex -277.9841 -26.6263 38.3080
endloop
endfacet
facet normal 0.4930 0.8660 -0.0836
outer loop
vertex -317.0526 0.0000 83.7390
vertex -272.1748 -26.2525 76.4201
vertex -277.9841 -26.6263 38.3080
endloop
endfacet
facet normal -0.9886 0.0000 0.1507
outer loop
vertex -277.9841 -26.6263 38.3080
vertex -272.1748 -26.2525 76.4201
vertex -277.9841 26.6263 38.3080
endloop
endfacet
facet normal -0.9886 0.0000 0.1507
outer loop
vertex -272.1748 -26.2525 76.4201
vertex -272.1748 26.2525 76.4201
vertex -277.9841 26.6263 38.3080
endloop
endfacet
facet normal 0.4930 -0.8660 -0.0836
outer loop
vertex -277.9841 26.6263 38.3080
vertex -272.1748 26.2525 76.4201
vertex -323.5687 0.0000 45.3021
endloop
endfacet
facet normal 0.4930 -0.8660 -0.0836
outer loop
vertex -272.1748 26.2525 76.4201
vertex -317.0526 0.0000 83.7390
vertex -323.5687 0.0000 45.3021
endloop
endfacet
facet normal 0.4921 0.8660 -0.0887
outer loop
vertex -317.0526 0.0000 83.7390
vertex -310.5322 0.0000 119.9212
vertex -272.1748 -26.2525 76.4201
endloop
endfacet
facet normal 0.4921 0.8660 -0.0887
outer loop
vertex -310.5322 0.0000 119.9212
vertex -266.3676 -25.8788 112.2651
vertex -272.1748 -26.2525 76.4201
endloop
endfacet
facet normal -0.9871 0.0000 0.1599
outer loop
vertex -272.1748 -26.2525 76.4201
vertex -266.3676 -25.8788 112.2651
vertex -272.1748 26.2525 76.4201
endloop
endfacet
facet normal -0.9871 0.0000 0.1599
outer loop
vertex -266.3676 -25.8788 112.2651
vertex -266.3676 25.8788 112.2651
vertex -272.1748 26.2525 76.4201
endloop
endfacet
facet normal 0.4921 -0.8660 -0.0888
outer loop
vertex -272.1748 26.2525 76.4201
vertex -266.3676 25.8788 112.2651
vertex -317.0526 0.0000 83.7390
endloop
endfacet
facet normal 0.4921 -0.8660 -0.0887
outer loop
vertex -266.3676 25.8788 112.2651
vertex -310.5322 0.0000 119.9212
vertex -317.0526 0.0000 83.7390
endloop
endfacet
facet normal 0.4911 0.8660 -0.0941
outer loop
vertex -310.5322 0.0000 119.9212
vertex -304.0072 0.0000 153.9811
vertex -266.3676 -25.8788 112.2651
endloop
endfacet
facet normal 0.4911 0.8660 -0.0942
outer loop
vertex -304.0072 0.0000 153.9811
vertex -260.5627 -25.5051 145.9753
vertex -266.3676 -25.8788 112.2651
endloop
endfacet
facet normal -0.9855 0.0000 0.1697
outer loop
vertex -266.3676 -25.8788 112.2651
vertex -260.5627 -25.5051 145.9753
vertex -266.3676 25.8788 112.2651
endloop
endfacet
facet normal -0.9855 0.0000 0.1697
outer loop
vertex -260.5627 -25.5051 145.9753
vertex -260.5627 25.5051 145.9753
vertex -266.3676 25.8788 112.2651
endloop
endfacet
facet normal 0.4911 -0.8660 -0.0942
outer loop
vertex -266.3676 25.8788 112.2651
vertex -260.5627 25.5051 145.9753
vertex -310.5322 0.0000 119.9212
endloop
endfacet
facet normal 0.4911 -0.8660 -0.0941
outer loop
vertex -260.5627 25.5051 145.9753
vertex -304.0072 0.0000 153.9811
vertex -310.5322 0.0000 119.9212
endloop
endfacet
facet normal 0.4900 0.8660 -0.0998
outer loop
vertex -304.0072 0.0000 153.9811
vertex -297.4771 0.0000 186.0433
vertex -260.5627 -25.5051 145.9753
endloop
endfacet
facet normal 0.4899 0.8660 -0.0999
outer loop
vertex -297.4771 0.0000 186.0433
vertex -254.7603 -25.1313 177.6751
vertex -260.5627 -25.5051 145.9753
endloop
endfacet
facet normal -0.9837 0.0000 0.1800
outer loop
vertex -260.5627 -25.5051 145.9753
vertex -254.7603 -25.1313 177.6751
vertex -260.5627 25.5051 145.9753
endloop
endfacet
facet normal -0.9837 0.0000 0.1800
outer loop
vertex -254.7603 -25.1313 177.6751
vertex -254.7603 25.1313 177.6751
vertex -260.5627 25.5051 145.9753
endloop
endfacet
facet normal 0.4900 -0.8660 -0.0999
outer loop
vertex -260.5627 25.5051 145.9753
vertex -254.7603 25.1313 177.6751
vertex -304.0072 0.0000 153.9811
endloop
endfacet
facet normal 0.4900 -0.8660 -0.0998
outer loop
vertex -254.7603 25.1313 177.6751
vertex -297.4771 0.0000 186.0433
vertex -304.0072 0.0000 153.9811
endloop
endfacet
facet normal 0.4887 0.8660 -0.1058
outer loop
vertex -297.4771 0.0000 186.0433
vertex -290.9414 0.0000 216.2249
vertex -254.7603 -25.1313 177.6751
endloop
endfacet
facet normal 0.4887 0.8660 -0.1059
outer loop
vertex -290.9414 0.0000 216.2249
vertex -248.9608 -24.7576 207.4816
vertex -254.7603 -25.1313 177.6751
endloop
endfacet
facet normal -0.9816 0.0000 0.1910
outer loop
vertex -254.7603 -25.1313 177.6751
vertex -248.9608 -24.7576 207.4816
vertex -254.7603 25.1313 177.6751
endloop
endfacet
facet normal -0.9816 0.0000 0.1910
outer loop
vertex -248.9608 -24.7576 207.4816
vertex -248.9608 24.7576 207.4816
vertex -254.7603 25.1313 177.6751
endloop
endfacet
facet normal 0.4887 -0.8660 -0.1060
outer loop
vertex -254.7603 25.1313 177.6751
vertex -248.9608 24.7576 207.4816
vertex -297.4771 0.0000 186.0433
endloop
endfacet
facet normal 0.4887 -0.8660 -0.1058
outer loop
vertex -248.9608 24.7576 207.4816
vertex -290.9414 0.0000 216.2249
vertex -297.4771 0.0000 186.0433
endloop
endfacet
facet normal 0.4873 0.8660 -0.1122
outer loop
vertex -290.9414 0.0000 216.2249
vertex -284.3995 0.0000 244.6360
vertex -248.9608 -24.7576 207.4816
endloop
endfacet
facet normal 0.4872 0.8660 -0.1123
outer loop
vertex -284.3995 0.0000 244.6360
vertex -243.1644 -24.3838 235.5048
vertex -248.9608 -24.7576 207.4816
endloop
endfacet
facet normal -0.9793 0.0000 0.2026
outer loop
vertex -248.9608 -24.7576 207.4816
vertex -243.1644 -24.3838 235.5048
vertex -248.9608 24.7576 207.4816
endloop
endfacet
facet normal -0.9793 0.0000 0.2026
outer loop
vertex -243.1644 -24.3838 235.5048
vertex -243.1644 24.3838 235.5048
vertex -248.9608 24.7576 207.4816
endloop
endfacet
facet normal 0.4873 -0.8660 -0.1123
outer loop
vertex -248.9608 24.7576 207.4816
vertex -243.1644 24.3838 235.5048
vertex -290.9414 0.0000 216.2249
endloop
endfacet
facet normal 0.4873 -0.8660 -0.1122
outer loop
vertex -243.1644 24.3838 235.5048
vertex -284.3995 0.0000 244.6360
vertex -290.9414 0.0000 216.2249
endloop
endfacet
facet normal 0.4857 0.8660 -0.1189
outer loop
vertex -284.3995 0.0000 244.6360
vertex -277.8509 0.0000 271.3800
vertex -243.1644 -24.3838 235.5048
endloop
endfacet
facet normal 0.4856 0.8660 -0.1191
outer loop
vertex -277.8509 0.0000 271.3800
vertex -237.3713 -24.0101 261.8485
vertex -243.1644 -24.3838 235.5048
endloop
endfacet
facet normal -0.9767 0.0000 0.2148
outer loop
vertex -243.1644 -24.3838 235.5048
vertex -237.3713 -24.0101 261.8485
vertex -243.1644 24.3838 235.5048
endloop
endfacet
facet normal -0.9767 0.0000 0.2148
outer loop
vertex -237.3713 -24.0101 261.8485
vertex -237.3713 24.0101 261.8485
vertex -243.1644 24.3838 235.5048
endloop
endfacet
facet normal 0.4857 -0.8660 -0.1191
outer loop
vertex -243.1644 24.3838 235.5048
vertex -237.3713 24.0101 261.8485
vertex -284.3995 0.0000 244.6360
endloop
endfacet
facet normal 0.4857 -0.8660 -0.1189
outer loop
vertex -237.3713 24.0101 261.8485
vertex -277.8509 0.0000 271.3800
vertex -284.3995 0.0000 244.6360
endloop
endfacet
facet normal 0.4840 0.8660 -0.1260
outer loop
vertex -277.8509 0.0000 271.3800
vertex -271.2951 0.0000 296.5543
vertex -237.3713 -24.0101 261.8485
endloop
endfacet
facet normal 0.4838 0.8660 -0.1262
outer loop
vertex -271.2951 0.0000 296.5543
vertex -231.5818 -23.6364 286.6102
vertex -237.3713 -24.0101 261.8485
endloop
endfacet
facet normal -0.9737 0.0000 0.2277
outer loop
vertex -237.3713 -24.0101 261.8485
vertex -231.5818 -23.6364 286.6102
vertex -237.3713 24.0101 261.8485
endloop
endfacet
facet normal -0.9737 0.0000 0.2277
outer loop
vertex -231.5818 -23.6364 286.6102
vertex -231.5818 23.6364 286.6102
vertex -237.3713 24.0101 261.8485
endloop
endfacet
facet normal 0.4839 -0.8660 -0.1262
outer loop
vertex -237.3713 24.0101 261.8485
vertex -231.5818 23.6364 286.6102
vertex -277.8509 0.0000 271.3800
endloop
endfacet
facet normal 0.4839 -0.8660 -0.1260
outer loop
vertex -231.5818 23.6364 286.6102
vertex -271.2951 0.0000 296.5543
vertex -277.8509 0.0000 271.3800
endloop
endfacet
facet normal 0.4820 0.8660 -0.1335
outer loop
vertex -271.2951 0.0000 296.5543
vertex -264.7313 0.0000 320.2503
vertex -231.5818 -23.6364 286.6102
endloop
endfacet
facet normal 0.4818 0.8660 -0.1337
outer loop
vertex -264.7313 0.0000 320.2503
vertex -225.7963 -23.2626 309.8815
vertex -231.5818 -23.6364 286.6102
endloop
endfacet
facet normal -0.9705 0.0000 0.2413
outer loop
vertex -231.5818 -23.6364 286.6102
vertex -225.7963 -23.2626 309.8815
vertex -231.5818 23.6364 286.6102
endloop
endfacet
facet normal -0.9705 0.0000 0.2413
outer loop
vertex -225.7963 -23.2626 309.8815
vertex -225.7963 23.2626 309.8815
vertex -231.5818 23.6364 286.6102
endloop
endfacet
facet normal 0.4819 -0.8660 -0.1337
outer loop
vertex -231.5818 23.6364 286.6102
vertex -225.7963 23.2626 309.8815
vertex -271.2951 0.0000 296.5543
endloop
endfacet
facet normal 0.4819 -0.8660 -0.1335
outer loop
vertex -225.7963 23.2626 309.8815
vertex -264.7313 0.0000 320.2503
vertex -271.2951 0.0000 296.5543
endloop
endfacet
facet normal 0.4797 0.8660 -0.1414
outer loop
vertex -264.7313 0.0000 320.2503
vertex -258.1590 0.0000 342.5538
vertex -225.7963 -23.2626 309.8815
endloop
endfacet
facet normal 0.4796 0.8660 -0.1416
outer loop
vertex -258.1590 0.0000 342.5538
vertex -220.0151 -22.8889 331.7489
vertex -225.7963 -23.2626 309.8815
endloop
endfacet
facet normal -0.9668 0.0000 0.2556
outer loop
vertex -225.7963 -23.2626 309.8815
vertex -220.0151 -22.8889 331.7489
vertex -225.7963 23.2626 309.8815
endloop
endfacet
facet normal -0.9668 0.0000 0.2556
outer loop
vertex -220.0151 -22.8889 331.7489
vertex -220.0151 22.8889 331.7489
vertex -225.7963 23.2626 309.8815
endloop
endfacet
facet normal 0.4797 -0.8659 -0.1416
outer loop
vertex -225.7963 23.2626 309.8815
vertex -220.0151 22.8889 331.7489
vertex -264.7313 0.0000 320.2503
endloop
endfacet
facet normal 0.4796 -0.8660 -0.1413
outer loop
vertex -220.0151 22.8889 331.7489
vertex -258.1590 0.0000 342.5538
vertex -264.7313 0.0000 320.2503
endloop
endfacet
facet normal 0.4772 0.8659 -0.1496
outer loop
vertex -258.1590 0.0000 342.5538
vertex -251.5773 0.0000 363.5453
vertex -220.0151 -22.8889 331.7489
endloop
endfacet
facet normal 0.4770 0.8660 -0.1499
outer loop
vertex -251.5773 0.0000 363.5453
vertex -214.2385 -22.5152 352.2934
vertex -220.0151 -22.8889 331.7489
endloop
endfacet
facet normal -0.9627 0.0000 0.2707
outer loop
vertex -220.0151 -22.8889 331.7489
vertex -214.2385 -22.5152 352.2934
vertex -220.0151 22.8889 331.7489
endloop
endfacet
facet normal -0.9627 0.0000 0.2707
outer loop
vertex -214.2385 -22.5152 352.2934
vertex -214.2385 22.5152 352.2934
vertex -220.0151 22.8889 331.7489
endloop
endfacet
facet normal 0.4772 -0.8659 -0.1499
outer loop
vertex -220.0151 22.8889 331.7489
vertex -214.2385 22.5152 352.2934
vertex -258.1590 0.0000 342.5538
endloop
endfacet
facet normal 0.4771 -0.8660 -0.1496
outer loop
vertex -214.2385 22.5152 352.2934
vertex -251.5773 0.0000 363.5453
vertex -258.1590 0.0000 342.5538
endloop
endfacet
facet normal 0.4744 0.8659 -0.1583
outer loop
vertex -251.5773 0.0000 363.5453
vertex -244.9857 0.0000 383.3006
vertex -214.2385 -22.5152 352.2934
endloop
endfacet
facet normal 0.4742 0.8660 -0.1586
outer loop
vertex -244.9857 0.0000 383.3006
vertex -208.4669 -22.1414 371.5915
vertex -214.2385 -22.5152 352.2934
endloop
endfacet
facet normal -0.9581 0.0000 0.2865
outer loop
vertex -214.2385 -22.5152 352.2934
vertex -208.4669 -22.1414 371.5915
vertex -214.2385 22.5152 352.2934
endloop
endfacet
facet normal -0.9581 0.0000 0.2865
outer loop
vertex -208.4669 -22.1414 371.5915
vertex -208.4669 22.1414 371.5915
vertex -214.2385 22.5152 352.2934
endloop
endfacet
facet normal 0.4743 -0.8659 -0.1586
outer loop
vertex -214.2385 22.5152 352.2934
vertex -208.4669 22.1414 371.5915
vertex -251.5773 0.0000 363.5453
endloop
endfacet
facet normal 0.4743 -0.8660 -0.1583
outer loop
vertex -208.4669 22.1414 371.5915
vertex -244.9857 0.0000 383.3006
vertex -251.5773 0.0000 363.5453
endloop
endfacet
facet normal 0.4713 0.8659 -0.1674
outer loop
vertex -244.9857 0.0000 383.3006
vertex -238.3834 0.0000 401.8904
vertex -208.4669 -22.1414 371.5915
endloop
endfacet
facet normal 0.4711 0.8660 -0.1677
outer loop
vertex -238.3834 0.0000 401.8904
vertex -202.7007 -21.7677 389.7151
vertex -208.4669 -22.1414 371.5915
endloop
endfacet
facet normal -0.9529 0.0000 0.3032
outer loop
vertex -208.4669 -22.1414 371.5915
vertex -202.7007 -21.7677 389.7151
vertex -208.4669 22.1414 371.5915
endloop
endfacet
facet normal -0.9529 0.0000 0.3032
outer loop
vertex -202.7007 -21.7677 389.7151
vertex -202.7007 21.7677 389.7151
vertex -208.4669 22.1414 371.5915
endloop
endfacet
facet normal 0.4712 -0.8659 -0.1678
outer loop
vertex -208.4669 22.1414 371.5915
vertex -202.7007 21.7677 389.7151
vertex -244.9857 0.0000 383.3006
endloop
endfacet
facet normal 0.4712 -0.8660 -0.1673
outer loop
vertex -202.7007 21.7677 389.7151
vertex -238.3834 0.0000 401.8904
vertex -244.9857 0.0000 383.3006
endloop
endfacet
facet normal 0.4679 0.8659 -0.1769
outer loop
vertex -238.3834 0.0000 401.8904
vertex -231.7696 0.0000 419.3814
vertex -202.7007 -21.7677 389.7151
endloop
endfacet
facet normal 0.4676 0.8660 -0.1773
outer loop
vertex -231.7696 0.0000 419.3814
vertex -196.9402 -21.3939 406.7318
vertex -202.7007 -21.7677 389.7151
endloop
endfacet
facet normal -0.9472 0.0000 0.3206
outer loop
vertex -202.7007 -21.7677 389.7151
vertex -196.9402 -21.3939 406.7318
vertex -202.7007 21.7677 389.7151
endloop
endfacet
facet normal -0.9472 0.0000 0.3206
outer loop
vertex -196.9402 -21.3939 406.7318
vertex -196.9402 21.3939 406.7318
vertex -202.7007 21.7677 389.7151
endloop
endfacet
facet normal 0.4677 -0.8659 -0.1773
outer loop
vertex -202.7007 21.7677 389.7151
vertex -196.9402 21.3939 406.7318
vertex -238.3834 0.0000 401.8904
endloop
endfacet
facet normal 0.4677 -0.8660 -0.1769
outer loop
vertex -196.9402 21.3939 406.7318
vertex -231.7696 0.0000 419.3814
vertex -238.3834 0.0000 401.8904
endloop
endfacet
facet normal 0.4640 0.8659 -0.1869
outer loop
vertex -231.7696 0.0000 419.3814
vertex -225.1437 0.0000 435.8358
vertex -196.9402 -21.3939 406.7318
endloop
endfacet
facet normal 0.4636 0.8660 -0.1873
outer loop
vertex -225.1437 0.0000 435.8358
vertex -191.1858 -21.0202 422.7054
vertex -196.9402 -21.3939 406.7318
endloop
endfacet
facet normal -0.9408 0.0000 0.3389
outer loop
vertex -196.9402 -21.3939 406.7318
vertex -191.1858 -21.0202 422.7054
vertex -196.9402 21.3939 406.7318
endloop
endfacet
facet normal -0.9408 0.0000 0.3389
outer loop
vertex -191.1858 -21.0202 422.7054
vertex -191.1858 21.0202 422.7054
vertex -196.9402 21.3939 406.7318
endloop
endfacet
facet normal 0.4638 -0.8659 -0.1874
outer loop
vertex -196.9402 21.3939 406.7318
vertex -191.1858 21.0202 422.7054
vertex -231.7696 0.0000 419.3814
endloop
endfacet
facet normal 0.4638 -0.8660 -0.1868
outer loop
vertex -191.1858 21.0202 422.7054
vertex -225.1437 0.0000 435.8358
vertex -231.7696 0.0000 419.3814
endloop
endfacet
facet normal 0.4597 0.8659 -0.1972
outer loop
vertex -225.1437 0.0000 435.8358
vertex -218.5048 0.0000 451.3118
vertex -191.1858 -21.0202 422.7054
endloop
endfacet
facet normal 0.4593 0.8660 -0.1977
outer loop
vertex -218.5048 0.0000 451.3118
vertex -185.4378 -20.6465 437.6957
vertex -191.1858 -21.0202 422.7054
endloop
endfacet
facet normal -0.9337 0.0000 0.3580
outer loop
vertex -191.1858 -21.0202 422.7054
vertex -185.4378 -20.6465 437.6957
vertex -191.1858 21.0202 422.7054
endloop
endfacet
facet normal -0.9337 0.0000 0.3580
outer loop
vertex -185.4378 -20.6465 437.6957
vertex -185.4378 20.6465 437.6957
vertex -191.1858 21.0202 422.7054
endloop
endfacet
facet normal 0.4595 -0.8659 -0.1978
outer loop
vertex -191.1858 21.0202 422.7054
vertex -185.4378 20.6465 437.6957
vertex -225.1437 0.0000 435.8358
endloop
endfacet
facet normal 0.4595 -0.8660 -0.1971
outer loop
vertex -185.4378 20.6465 437.6957
vertex -218.5048 0.0000 451.3118
vertex -225.1437 0.0000 435.8358
endloop
endfacet
facet normal 0.4550 0.8659 -0.2080
outer loop
vertex -218.5048 0.0000 451.3118
vertex -211.8525 0.0000 465.8639
vertex -185.4378 -20.6465 437.6957
endloop
endfacet
facet normal 0.4545 0.8660 -0.2086
outer loop
vertex -211.8525 0.0000 465.8639
vertex -179.6966 -20.2727 451.7591
vertex -185.4378 -20.6465 437.6957
endloop
endfacet
facet normal -0.9258 0.0000 0.3780
outer loop
vertex -185.4378 -20.6465 437.6957
vertex -179.6966 -20.2727 451.7591
vertex -185.4378 20.6465 437.6957
endloop
endfacet
facet normal -0.9258 0.0000 0.3780
outer loop
vertex -179.6966 -20.2727 451.7591
vertex -179.6966 20.2727 451.7591
vertex -185.4378 20.6465 437.6957
endloop
endfacet
facet normal 0.4547 -0.8659 -0.2086
outer loop
vertex -185.4378 20.6465 437.6957
vertex -179.6966 20.2727 451.7591
vertex -218.5048 0.0000 451.3118
endloop
endfacet
facet normal 0.4548 -0.8660 -0.2079
outer loop
vertex -179.6966 20.2727 451.7591
vertex -211.8525 0.0000 465.8639
vertex -218.5048 0.0000 451.3118
endloop
endfacet
facet normal 0.4497 0.8659 -0.2192
outer loop
vertex -211.8525 0.0000 465.8639
vertex -205.1860 0.0000 479.5431
vertex -179.6966 -20.2727 451.7591
endloop
endfacet
facet normal 0.4492 0.8660 -0.2198
outer loop
vertex -205.1860 0.0000 479.5431
vertex -173.9624 -19.8990 464.9486
vertex -179.6966 -20.2727 451.7591
endloop
endfacet
facet normal -0.9171 0.0000 0.3987
outer loop
vertex -179.6966 -20.2727 451.7591
vertex -173.9624 -19.8990 464.9486
vertex -179.6966 20.2727 451.7591
endloop
endfacet
facet normal -0.9171 0.0000 0.3987
outer loop
vertex -173.9624 -19.8990 464.9486
vertex -173.9624 19.8990 464.9486
vertex -179.6966 20.2727 451.7591
endloop
endfacet
facet normal 0.4494 -0.8658 -0.2199
outer loop
vertex -179.6966 20.2727 451.7591
vertex -173.9624 19.8990 464.9486
vertex -211.8525 0.0000 465.8639
endloop
endfacet
facet normal 0.4495 -0.8660 -0.2191
outer loop
vertex -173.9624 19.8990 464.9486
vertex -205.1860 0.0000 479.5431
vertex -211.8525 0.0000 465.8639
endloop
endfacet
facet normal 0.4439 0.8658 -0.2308
outer loop
vertex -205.1860 0.0000 479.5431
vertex -198.5049 0.0000 492.3967
vertex -173.9624 -19.8990 464.9486
endloop
endfacet
facet normal 0.4433 0.8660 -0.2315
outer loop
vertex -198.5049 0.0000 492.3967
vertex -168.2356 -19.5253 477.3144
vertex -173.9624 -19.8990 464.9486
endloop
endfacet
facet normal -0.9074 0.0000 0.4202
outer loop
vertex -173.9624 -19.8990 464.9486
vertex -168.2356 -19.5253 477.3144
vertex -173.9624 19.8990 464.9486
endloop
endfacet
facet normal -0.9074 0.0000 0.4202
outer loop
vertex -168.2356 -19.5253 477.3144
vertex -168.2356 19.5253 477.3144
vertex -173.9624 19.8990 464.9486
endloop
endfacet
facet normal 0.4435 -0.8658 -0.2316
outer loop
vertex -173.9624 19.8990 464.9486
vertex -168.2356 19.5253 477.3144
vertex -205.1860 0.0000 479.5431
endloop
endfacet
facet normal 0.4437 -0.8660 -0.2306
outer loop
vertex -168.2356 19.5253 477.3144
vertex -198.5049 0.0000 492.3967
vertex -205.1860 0.0000 479.5431
endloop
endfacet
facet normal 0.4376 0.8658 -0.2427
outer loop
vertex -198.5049 0.0000 492.3967
vertex -191.8087 0.0000 504.4691
vertex -168.2356 -19.5253 477.3144
endloop
endfacet
facet normal 0.4368 0.8660 -0.2435
outer loop
vertex -191.8087 0.0000 504.4691
vertex -162.5163 -19.1515 488.9032
vertex -168.2356 -19.5253 477.3144
endloop
endfacet
facet normal -0.8967 0.0000 0.4426
outer loop
vertex -168.2356 -19.5253 477.3144
vertex -162.5163 -19.1515 488.9032
vertex -168.2356 19.5253 477.3144
endloop
endfacet
facet normal -0.8967 0.0000 0.4426
outer loop
vertex -162.5163 -19.1515 488.9032
vertex -162.5163 19.1515 488.9032
vertex -168.2356 19.5253 477.3144
endloop
endfacet
facet normal 0.4371 -0.8658 -0.2436
outer loop
vertex -168.2356 19.5253 477.3144
vertex -162.5163 19.1515 488.9032
vertex -198.5049 0.0000 492.3967
endloop
endfacet
facet normal 0.4373 -0.8660 -0.2426
outer loop
vertex -162.5163 19.1515 488.9032
vertex -191.8087 0.0000 504.4691
vertex -198.5049 0.0000 492.3967
endloop
endfacet
facet normal 0.4306 0.8658 -0.2550
outer loop
vertex -191.8087 0.0000 504.4691
vertex -185.0972 0.0000 515.8015
vertex -162.5163 -19.1515 488.9032
endloop
endfacet
facet normal 0.4297 0.8660 -0.2559
outer loop
vertex -185.0972 0.0000 515.8015
vertex -156.8046 -18.7778 499.7595
vertex -162.5163 -19.1515 488.9032
endloop
endfacet
facet normal -0.8850 0.0000 0.4656
outer loop
vertex -162.5163 -19.1515 488.9032
vertex -156.8046 -18.7778 499.7595
vertex -162.5163 19.1515 488.9032
endloop
endfacet
facet normal -0.8850 0.0000 0.4656
outer loop
vertex -156.8046 -18.7778 499.7595
vertex -156.8046 18.7778 499.7595
vertex -162.5163 19.1515 488.9032
endloop
endfacet
facet normal 0.4300 -0.8658 -0.2560
outer loop
vertex -162.5163 19.1515 488.9032
vertex -156.8046 18.7778 499.7595
vertex -191.8087 0.0000 504.4691
endloop
endfacet
facet normal 0.4303 -0.8660 -0.2548
outer loop
vertex -156.8046 18.7778 499.7595
vertex -185.0972 0.0000 515.8015
vertex -191.8087 0.0000 504.4691
endloop
endfacet
facet normal 0.4229 0.8658 -0.2676
outer loop
vertex -185.0972 0.0000 515.8015
vertex -178.3703 0.0000 526.4322
vertex -156.8046 -18.7778 499.7595
endloop
endfacet
facet normal 0.4219 0.8660 -0.2686
outer loop
vertex -178.3703 0.0000 526.4322
vertex -151.1007 -18.4040 509.9248
vertex -156.8046 -18.7778 499.7595
endloop
endfacet
facet normal -0.8721 0.0000 0.4893
outer loop
vertex -156.8046 -18.7778 499.7595
vertex -151.1007 -18.4040 509.9248
vertex -156.8046 18.7778 499.7595
endloop
endfacet
facet normal -0.8721 0.0000 0.4893
outer loop
vertex -151.1007 -18.4040 509.9248
vertex -151.1007 18.4040 509.9248
vertex -156.8046 18.7778 499.7595
endloop
endfacet
facet normal 0.4222 -0.8657 -0.2687
outer loop
vertex -156.8046 18.7778 499.7595
vertex -151.1007 18.4040 509.9248
vertex -185.0972 0.0000 515.8015
endloop
endfacet
facet normal 0.4226 -0.8660 -0.2674
outer loop
vertex -151.1007 18.4040 509.9248
vertex -178.3703 0.0000 526.4322
vertex -185.0972 0.0000 515.8015
endloop
endfacet
facet normal 0.4145 0.8657 -0.2805
outer loop
vertex -178.3703 0.0000 526.4322
vertex -171.6282 0.0000 536.3968
vertex -151.1007 -18.4040 509.9248
endloop
endfacet
facet normal 0.4133 0.8660 -0.2815
outer loop
vertex -171.6282 0.0000 536.3968
vertex -145.4044 -18.0303 519.4384
vertex -151.1007 -18.4040 509.9248
endloop
endfacet
facet normal -0.8580 0.0000 0.5137
outer loop
vertex -151.1007 -18.4040 509.9248
vertex -145.4044 -18.0303 519.4384
vertex -151.1007 18.4040 509.9248
endloop
endfacet
facet normal -0.8580 0.0000 0.5137
outer loop
vertex -145.4044 -18.0303 519.4384
vertex -145.4044 18.0303 519.4384
vertex -151.1007 18.4040 509.9248
endloop
endfacet
facet normal 0.4137 -0.8657 -0.2817
outer loop
vertex -151.1007 18.4040 509.9248
vertex -145.4044 18.0303 519.4384
vertex -178.3703 0.0000 526.4322
endloop
endfacet
facet normal 0.4142 -0.8660 -0.2802
outer loop
vertex -145.4044 18.0303 519.4384
vertex -171.6282 0.0000 536.3968
vertex -178.3703 0.0000 526.4322
endloop
endfacet
facet normal 0.4054 0.8657 -0.2936
outer loop
vertex -171.6282 0.0000 536.3968
vertex -164.8711 0.0000 545.7283
vertex -145.4044 -18.0303 519.4384
endloop
endfacet
facet normal 0.4041 0.8660 -0.2947
outer loop
vertex -164.8711 0.0000 545.7283
vertex -139.7155 -17.6566 528.3369
vertex -145.4044 -18.0303 519.4384
endloop
endfacet
facet normal -0.8425 0.0000 0.5386
outer loop
vertex -145.4044 -18.0303 519.4384
vertex -139.7155 -17.6566 528.3369
vertex -145.4044 18.0303 519.4384
endloop
endfacet
facet normal -0.8425 0.0000 0.5386
outer loop
vertex -139.7155 -17.6566 528.3369
vertex -139.7155 17.6566 528.3369
vertex -145.4044 18.0303 519.4384
endloop
endfacet
facet normal 0.4045 -0.8657 -0.2949
outer loop
vertex -145.4044 18.0303 519.4384
vertex -139.7155 17.6566 528.3369
vertex -171.6282 0.0000 536.3968
endloop
endfacet
facet normal 0.4050 -0.8660 -0.2933
outer loop
vertex -139.7155 17.6566 528.3369
vertex -164.8711 0.0000 545.7283
vertex -171.6282 0.0000 536.3968
endloop
endfacet
facet normal 0.3955 0.8657 -0.3068
outer loop
vertex -164.8711 0.0000 545.7283
vertex -158.0997 0.0000 554.4573
vertex -139.7155 -17.6566 528.3369
endloop
endfacet
facet normal 0.3940 0.8659 -0.3080
outer loop
vertex -158.0997 0.0000 554.4573
vertex -134.0338 -17.2828 536.6551
vertex -139.7155 -17.6566 528.3369
endloop
endfacet
facet normal -0.8258 0.0000 0.5640
outer loop
vertex -139.7155 -17.6566 528.3369
vertex -134.0338 -17.2828 536.6551
vertex -139.7155 17.6566 528.3369
endloop
endfacet
facet normal -0.8258 0.0000 0.5640
outer loop
vertex -134.0338 -17.2828 536.6551
vertex -134.0338 17.2828 536.6551
vertex -139.7155 17.6566 528.3369
endloop
endfacet
facet normal 0.3944 -0.8657 -0.3083
outer loop
vertex -139.7155 17.6566 528.3369
vertex -134.0338 17.2828 536.6551
vertex -164.8711 0.0000 545.7283
endloop
endfacet
facet normal 0.3951 -0.8660 -0.3065
outer loop
vertex -134.0338 17.2828 536.6551
vertex -158.0997 0.0000 554.4573
vertex -164.8711 0.0000 545.7283
endloop
endfacet
facet normal 0.3848 0.8657 -0.3202
outer loop
vertex -158.0997 0.0000 554.4573
vertex -151.3150 0.0000 562.6124
vertex -134.0338 -17.2828 536.6551
endloop
endfacet
facet normal 0.3831 0.8659 -0.3215
outer loop
vertex -151.3150 0.0000 562.6124
vertex -128.3588 -16.9091 544.4254
vertex -134.0338 -17.2828 536.6551
endloop
endfacet
facet normal -0.8076 0.0000 0.5898
outer loop
vertex -134.0338 -17.2828 536.6551
vertex -128.3588 -16.9091 544.4254
vertex -134.0338 17.2828 536.6551
endloop
endfacet
facet normal -0.8076 0.0000 0.5898
outer loop
vertex -128.3588 -16.9091 544.4254
vertex -128.3588 16.9091 544.4254
vertex -134.0338 17.2828 536.6551
endloop
endfacet
facet normal 0.3836 -0.8656 -0.3218
outer loop
vertex -134.0338 17.2828 536.6551
vertex -128.3588 16.9091 544.4254
vertex -158.0997 0.0000 554.4573
endloop
endfacet
facet normal 0.3845 -0.8660 -0.3199
outer loop
vertex -128.3588 16.9091 544.4254
vertex -151.3150 0.0000 562.6124
vertex -158.0997 0.0000 554.4573
endloop
endfacet
facet normal 0.3733 0.8656 -0.3336
outer loop
vertex -151.3150 0.0000 562.6124
vertex -144.5180 0.0000 570.2197
vertex -128.3588 -16.9091 544.4254
endloop
endfacet
facet normal 0.3714 0.8659 -0.3350
outer loop
vertex -144.5180 0.0000 570.2197
vertex -122.6899 -16.5354 551.6782
vertex -128.3588 -16.9091 544.4254
endloop
endfacet
facet normal -0.7879 0.0000 0.6158
outer loop
vertex -128.3588 -16.9091 544.4254
vertex -122.6899 -16.5354 551.6782
vertex -128.3588 16.9091 544.4254
endloop
endfacet
facet normal -0.7879 0.0000 0.6158
outer loop
vertex -122.6899 -16.5354 551.6782
vertex -122.6899 16.5354 551.6782
vertex -128.3588 16.9091 544.4254
endloop
endfacet
facet normal 0.3719 -0.8656 -0.3353
outer loop
vertex -128.3588 16.9091 544.4254
vertex -122.6899 16.5354 551.6782
vertex -151.3150 0.0000 562.6124
endloop
endfacet
facet normal 0.3729 -0.8660 -0.3332
outer loop
vertex -122.6899 16.5354 551.6782
vertex -144.5180 0.0000 570.2197
vertex -151.3150 0.0000 562.6124
endloop
endfacet
facet normal 0.3610 0.8656 -0.3469
outer loop
vertex -144.5180 0.0000 570.2197
vertex -137.7103 0.0000 577.3038
vertex -122.6899 -16.5354 551.6782
endloop
endfacet
facet normal 0.3589 0.8659 -0.3484
outer loop
vertex -137.7103 0.0000 577.3038
vertex -117.0264 -16.1616 558.4420
vertex -122.6899 -16.5354 551.6782
endloop
endfacet
facet normal -0.7667 0.0000 0.6420
outer loop
vertex -122.6899 -16.5354 551.6782
vertex -117.0264 -16.1616 558.4420
vertex -122.6899 16.5354 551.6782
endloop
endfacet
facet normal -0.7667 0.0000 0.6420
outer loop
vertex -117.0264 -16.1616 558.4420
vertex -117.0264 16.1616 558.4420
vertex -122.6899 16.5354 551.6782
endloop
endfacet
facet normal 0.3594 -0.8655 -0.3488
outer loop
vertex -122.6899 16.5354 551.6782
vertex -117.0264 16.1616 558.4420
vertex -144.5180 0.0000 570.2197
endloop
endfacet
facet normal 0.3606 -0.8660 -0.3465
outer loop
vertex -117.0264 16.1616 558.4420
vertex -137.7103 0.0000 577.3038
vertex -144.5180 0.0000 570.2197
endloop
endfacet
facet normal 0.3479 0.8656 -0.3602
outer loop
vertex -137.7103 0.0000 577.3038
vertex -130.8938 0.0000 583.8871
vertex -117.0264 -16.1616 558.4420
endloop
endfacet
facet normal 0.3455 0.8659 -0.3617
outer loop
vertex -130.8938 0.0000 583.8871
vertex -111.3672 -15.7879 564.7434
vertex -117.0264 -16.1616 558.4420
endloop
endfacet
facet normal -0.7440 0.0000 0.6682
outer loop
vertex -117.0264 -16.1616 558.4420
vertex -111.3672 -15.7879 564.7434
vertex -117.0264 16.1616 558.4420
endloop
endfacet
facet normal -0.7440 0.0000 0.6682
outer loop
vertex -111.3672 -15.7879 564.7434
vertex -111.3672 15.7879 564.7434
vertex -117.0264 16.1616 558.4420
endloop
endfacet
facet normal 0.3461 -0.8655 -0.3621
outer loop
vertex -117.0264 16.1616 558.4420
vertex -111.3672 15.7879 564.7434
vertex -137.7103 0.0000 577.3038
endloop
endfacet
facet normal 0.3474 -0.8659 -0.3598
outer loop
vertex -111.3672 15.7879 564.7434
vertex -130.8938 0.0000 583.8871
vertex -137.7103 0.0000 577.3038
endloop
endfacet
facet normal 0.3339 0.8656 -0.3733
outer loop
vertex -130.8938 0.0000 583.8871
vertex -124.0706 0.0000 589.9909
vertex -111.3672 -15.7879 564.7434
endloop
endfacet
facet normal 0.3313 0.8659 -0.3748
outer loop
vertex -124.0706 0.0000 589.9909
vertex -105.7114 -15.4141 570.6071
vertex -111.3672 -15.7879 564.7434
endloop
endfacet
facet normal -0.7198 0.0000 0.6942
outer loop
vertex -111.3672 -15.7879 564.7434
vertex -105.7114 -15.4141 570.6071
vertex -111.3672 15.7879 564.7434
endloop
endfacet
facet normal -0.7198 0.0000 0.6942
outer loop
vertex -105.7114 -15.4141 570.6071
vertex -105.7114 15.4141 570.6071
vertex -111.3672 15.7879 564.7434
endloop
endfacet
facet normal 0.3319 -0.8655 -0.3753
outer loop
vertex -111.3672 15.7879 564.7434
vertex -105.7114 15.4141 570.6071
vertex -130.8938 0.0000 583.8871
endloop
endfacet
facet normal 0.3335 -0.8659 -0.3728
outer loop
vertex -105.7114 15.4141 570.6071
vertex -124.0706 0.0000 589.9909
vertex -130.8938 0.0000 583.8871
endloop
endfacet
facet normal 0.3191 0.8655 -0.3860
outer loop
vertex -124.0706 0.0000 589.9909
vertex -117.2430 0.0000 595.6346
vertex -105.7114 -15.4141 570.6071
endloop
endfacet
facet normal 0.3163 0.8659 -0.3876
outer loop
vertex -117.2430 0.0000 595.6346
vertex -100.0578 -15.0404 576.0563
vertex -105.7114 -15.4141 570.6071
endloop
endfacet
facet normal -0.6940 0.0000 0.7200
outer loop
vertex -105.7114 -15.4141 570.6071
vertex -100.0578 -15.0404 576.0563
vertex -105.7114 15.4141 570.6071
endloop
endfacet
facet normal -0.6940 0.0000 0.7200
outer loop
vertex -100.0578 -15.0404 576.0563
vertex -100.0578 15.0404 576.0563
vertex -105.7114 15.4141 570.6071
endloop
endfacet
facet normal 0.3169 -0.8654 -0.3881
outer loop
vertex -105.7114 15.4141 570.6071
vertex -100.0578 15.0404 576.0563
vertex -124.0706 0.0000 589.9909
endloop
endfacet
facet normal 0.3187 -0.8659 -0.3855
outer loop
vertex -100.0578 15.0404 576.0563
vertex -117.2430 0.0000 595.6346
vertex -124.0706 0.0000 589.9909
endloop
endfacet
facet normal 0.3035 0.8655 -0.3985
outer loop
vertex -117.2430 0.0000 595.6346
vertex -110.4138 0.0000 600.8366
vertex -100.0578 -15.0404 576.0563
endloop
endfacet
facet normal 0.3005 0.8659 -0.4000
outer loop
vertex -110.4138 0.0000 600.8366
vertex -94.4050 -14.6667 581.1122
vertex -100.0578 -15.0404 576.0563
endloop
endfacet
facet normal -0.6667 0.0000 0.7454
outer loop
vertex -100.0578 -15.0404 576.0563
vertex -94.4050 -14.6667 581.1122
vertex -100.0578 15.0404 576.0563
endloop
endfacet
facet normal -0.6667 0.0000 0.7454
outer loop
vertex -94.4050 -14.6667 581.1122
vertex -94.4050 14.6667 581.1122
vertex -100.0578 15.0404 576.0563
endloop
endfacet
facet normal 0.3010 -0.8654 -0.4006
outer loop
vertex -100.0578 15.0404 576.0563
vertex -94.4050 14.6667 581.1122
vertex -117.2430 0.0000 595.6346
endloop
endfacet
facet normal 0.3031 -0.8659 -0.3979
outer loop
vertex -94.4050 14.6667 581.1122
vertex -110.4138 0.0000 600.8366
vertex -117.2430 0.0000 595.6346
endloop
endfacet
facet normal 0.2872 0.8655 -0.4105
outer loop
vertex -110.4138 0.0000 600.8366
vertex -103.5859 0.0000 605.6138
vertex -94.4050 -14.6667 581.1122
endloop
endfacet
facet normal 0.2839 0.8659 -0.4119
outer loop
vertex -103.5859 0.0000 605.6138
vertex -88.7516 -14.2929 585.7944
vertex -94.4050 -14.6667 581.1122
endloop
endfacet
facet normal -0.6379 0.0000 0.7702
outer loop
vertex -94.4050 -14.6667 581.1122
vertex -88.7516 -14.2929 585.7944
vertex -94.4050 14.6667 581.1122
endloop
endfacet
facet normal -0.6379 0.0000 0.7702
outer loop
vertex -88.7516 -14.2929 585.7944
vertex -88.7516 14.2929 585.7944
vertex -94.4050 14.6667 581.1122
endloop
endfacet
facet normal 0.2845 -0.8654 -0.4126
outer loop
vertex -94.4050 14.6667 581.1122
vertex -88.7516 14.2929 585.7944
vertex -110.4138 0.0000 600.8366
endloop
endfacet
facet normal 0.2867 -0.8659 -0.4098
outer loop
vertex -88.7516 14.2929 585.7944
vertex -103.5859 0.0000 605.6138
vertex -110.4138 0.0000 600.8366
endloop
endfacet
facet normal 0.2701 0.8654 -0.4219
outer loop
vertex -103.5859 0.0000 605.6138
vertex -96.7621 0.0000 609.9823
vertex -88.7516 -14.2929 585.7944
endloop
endfacet
facet normal 0.2666 0.8658 -0.4233
outer loop
vertex -96.7621 0.0000 609.9823
vertex -83.0961 -13.9192 590.1210
vertex -88.7516 -14.2929 585.7944
endloop
endfacet
facet normal -0.6076 0.0000 0.7942
outer loop
vertex -88.7516 -14.2929 585.7944
vertex -83.0961 -13.9192 590.1210
vertex -88.7516 14.2929 585.7944
endloop
endfacet
facet normal -0.6076 0.0000 0.7942
outer loop
vertex -83.0961 -13.9192 590.1210
vertex -83.0961 13.9192 590.1210
vertex -88.7516 14.2929 585.7944
endloop
endfacet
facet normal 0.2672 -0.8653 -0.4240
outer loop
vertex -88.7516 14.2929 585.7944
vertex -83.0961 13.9192 590.1210
vertex -103.5859 0.0000 605.6138
endloop
endfacet
facet normal 0.2697 -0.8659 -0.4213
outer loop
vertex -83.0961 13.9192 590.1210
vertex -96.7621 0.0000 609.9823
vertex -103.5859 0.0000 605.6138
endloop
endfacet
facet normal 0.2524 0.8654 -0.4328
outer loop
vertex -96.7621 0.0000 609.9823
vertex -89.9456 0.0000 613.9571
vertex -83.0961 -13.9192 590.1210
endloop
endfacet
facet normal 0.2487 0.8658 -0.4341
outer loop
vertex -89.9456 0.0000 613.9571
vertex -77.4370 -13.5455 594.1084
vertex -83.0961 -13.9192 590.1210
endloop
endfacet
facet normal -0.5760 0.0000 0.8175
outer loop
vertex -83.0961 -13.9192 590.1210
vertex -77.4370 -13.5455 594.1084
vertex -83.0961 13.9192 590.1210
endloop
endfacet
facet normal -0.5760 0.0000 0.8175
outer loop
vertex -77.4370 -13.5455 594.1084
vertex -77.4370 13.5455 594.1084
vertex -83.0961 13.9192 590.1210
endloop
endfacet
facet normal 0.2493 -0.8653 -0.4349
outer loop
vertex -83.0961 13.9192 590.1210
vertex -77.4370 13.5455 594.1084
vertex -96.7621 0.0000 609.9823
endloop
endfacet
facet normal 0.2520 -0.8659 -0.4321
outer loop
vertex -77.4370 13.5455 594.1084
vertex -89.9456 0.0000 613.9571
vertex -96.7621 0.0000 609.9823
endloop
endfacet
facet normal 0.2340 0.8654 -0.4431
outer loop
vertex -89.9456 0.0000 613.9571
vertex -83.1396 0.0000 617.5523
vertex -77.4370 -13.5455 594.1084
endloop
endfacet
facet normal 0.2302 0.8658 -0.4443
outer loop
vertex -83.1396 0.0000 617.5523
vertex -71.7726 -13.1717 597.7716
vertex -77.4370 -13.5455 594.1084
endloop
endfacet
facet normal -0.5430 0.0000 0.8397
outer loop
vertex -77.4370 -13.5455 594.1084
vertex -71.7726 -13.1717 597.7716
vertex -77.4370 13.5455 594.1084
endloop
endfacet
facet normal -0.5430 0.0000 0.8397
outer loop
vertex -71.7726 -13.1717 597.7716
vertex -71.7726 13.1717 597.7716
vertex -77.4370 13.5455 594.1084
endloop
endfacet
facet normal 0.2307 -0.8653 -0.4451
outer loop
vertex -77.4370 13.5455 594.1084
vertex -71.7726 13.1717 597.7716
vertex -89.9456 0.0000 613.9571
endloop
endfacet
facet normal 0.2336 -0.8659 -0.4423
outer loop
vertex -71.7726 13.1717 597.7716
vertex -83.1396 0.0000 617.5523
vertex -89.9456 0.0000 613.9571
endloop
endfacet
facet normal 0.2151 0.8654 -0.4526
outer loop
vertex -83.1396 0.0000 617.5523
vertex -76.3470 0.0000 620.7810
vertex -71.7726 -13.1717 597.7716
endloop
endfacet
facet normal 0.2111 0.8658 -0.4537
outer loop
vertex -76.3470 0.0000 620.7810
vertex -66.1015 -12.7980 601.1240
vertex -71.7726 -13.1717 597.7716
endloop
endfacet
facet normal -0.5089 0.0000 0.8608
outer loop
vertex -71.7726 -13.1717 597.7716
vertex -66.1015 -12.7980 601.1240
vertex -71.7726 13.1717 597.7716
endloop
endfacet
facet normal -0.5089 0.0000 0.8608
outer loop
vertex -66.1015 -12.7980 601.1240
vertex -66.1015 12.7980 601.1240
vertex -71.7726 13.1717 597.7716
endloop
endfacet
facet normal 0.2117 -0.8652 -0.4545
outer loop
vertex -71.7726 13.1717 597.7716
vertex -66.1015 12.7980 601.1240
vertex -83.1396 0.0000 617.5523
endloop
endfacet
facet normal 0.2148 -0.8659 -0.4518
outer loop
vertex -66.1015 12.7980 601.1240
vertex -76.3470 0.0000 620.7810
vertex -83.1396 0.0000 617.5523
endloop
endfacet
facet normal 0.1957 0.8653 -0.4614
outer loop
vertex -76.3470 0.0000 620.7810
vertex -69.5709 0.0000 623.6557
vertex -66.1015 -12.7980 601.1240
endloop
endfacet
facet normal 0.1916 0.8658 -0.4623
outer loop
vertex -69.5709 0.0000 623.6557
vertex -60.4222 -12.4242 604.1778
vertex -66.1015 -12.7980 601.1240
endloop
endfacet
facet normal -0.4736 0.0000 0.8808
outer loop
vertex -66.1015 -12.7980 601.1240
vertex -60.4222 -12.4242 604.1778
vertex -66.1015 12.7980 601.1240
endloop
endfacet
facet normal -0.4736 0.0000 0.8808
outer loop
vertex -60.4222 -12.4242 604.1778
vertex -60.4222 12.4242 604.1778
vertex -66.1015 12.7980 601.1240
endloop
endfacet
facet normal 0.1921 -0.8652 -0.4632
outer loop
vertex -66.1015 12.7980 601.1240
vertex -60.4222 12.4242 604.1778
vertex -76.3470 0.0000 620.7810
endloop
endfacet
facet normal 0.1954 -0.8659 -0.4605
outer loop
vertex -60.4222 12.4242 604.1778
vertex -69.5709 0.0000 623.6557
vertex -76.3470 0.0000 620.7810
endloop
endfacet
facet normal 0.1759 0.8653 -0.4693
outer loop
vertex -69.5709 0.0000 623.6557
vertex -62.8140 0.0000 626.1879
vertex -60.4222 -12.4242 604.1778
endloop
endfacet
facet normal 0.1717 0.8658 -0.4701
outer loop
vertex -62.8140 0.0000 626.1879
vertex -54.7332 -12.0505 606.9436
vertex -60.4222 -12.4242 604.1778
endloop
endfacet
facet normal -0.4372 0.0000 0.8993
outer loop
vertex -60.4222 -12.4242 604.1778
vertex -54.7332 -12.0505 606.9436
vertex -60.4222 12.4242 604.1778
endloop
endfacet
facet normal -0.4372 0.0000 0.8993
outer loop
vertex -54.7332 -12.0505 606.9436
vertex -54.7332 12.0505 606.9436
vertex -60.4222 12.4242 604.1778
endloop
endfacet
facet normal 0.1722 -0.8652 -0.4710
outer loop
vertex -60.4222 12.4242 604.1778
vertex -54.7332 12.0505 606.9436
vertex -69.5709 0.0000 623.6557
endloop
endfacet
facet normal 0.1756 -0.8659 -0.4685
outer loop
vertex -54.7332 12.0505 606.9436
vertex -62.8140 0.0000 626.1879
vertex -69.5709 0.0000 623.6557
endloop
endfacet
facet normal 0.1557 0.8653 -0.4765
outer loop
vertex -62.8140 0.0000 626.1879
vertex -56.0791 0.0000 628.3886
vertex -54.7332 -12.0505 606.9436
endloop
endfacet
facet normal 0.1514 0.8658 -0.4770
outer loop
vertex -56.0791 0.0000 628.3886
vertex -49.0333 -11.6768 609.4309
vertex -54.7332 -12.0505 606.9436
endloop
endfacet
facet normal -0.3999 0.0000 0.9165
outer loop
vertex -54.7332 -12.0505 606.9436
vertex -49.0333 -11.6768 609.4309
vertex -54.7332 12.0505 606.9436
endloop
endfacet
facet normal -0.3999 0.0000 0.9165
outer loop
vertex -49.0333 -11.6768 609.4309
vertex -49.0333 11.6768 609.4309
vertex -54.7332 12.0505 606.9436
endloop
endfacet
facet normal 0.1518 -0.8651 -0.4780
outer loop
vertex -54.7332 12.0505 606.9436
vertex -49.0333 11.6768 609.4309
vertex -62.8140 0.0000 626.1879
endloop
endfacet
facet normal 0.1554 -0.8659 -0.4756
outer loop
vertex -49.0333 11.6768 609.4309
vertex -56.0791 0.0000 628.3886
vertex -62.8140 0.0000 626.1879
endloop
endfacet
facet normal 0.1352 0.8653 -0.4827
outer loop
vertex -56.0791 0.0000 628.3886
vertex -49.3686 0.0000 630.2678
vertex -49.0333 -11.6768 609.4309
endloop
endfacet
facet normal 0.1308 0.8658 -0.4831
outer loop
vertex -49.3686 0.0000 630.2678
vertex -43.3211 -11.3030 611.6478
vertex -49.0333 -11.6768 609.4309
endloop
endfacet
facet normal -0.3618 0.0000 0.9322
outer loop
vertex -49.0333 -11.6768 609.4309
vertex -43.3211 -11.3030 611.6478
vertex -49.0333 11.6768 609.4309
endloop
endfacet
facet normal -0.3618 0.0000 0.9322
outer loop
vertex -43.3211 -11.3030 611.6478
vertex -43.3211 11.3030 611.6478
vertex -49.0333 11.6768 609.4309
endloop
endfacet
facet normal 0.1313 -0.8651 -0.4841
outer loop
vertex -49.0333 11.6768 609.4309
vertex -43.3211 11.3030 611.6478
vertex -56.0791 0.0000 628.3886
endloop
endfacet
facet normal 0.1349 -0.8658 -0.4818
outer loop
vertex -43.3211 11.3030 611.6478
vertex -49.3686 0.0000 630.2678
vertex -56.0791 0.0000 628.3886
endloop
endfacet
facet normal 0.1144 0.8653 -0.4881
outer loop
vertex -49.3686 0.0000 630.2678
vertex -42.6847 0.0000 631.8347
vertex -43.3211 -11.3030 611.6478
endloop
endfacet
facet normal 0.1101 0.8657 -0.4882
outer loop
vertex -42.6847 0.0000 631.8347
vertex -37.5957 -10.9293 613.6014
vertex -43.3211 -11.3030 611.6478
endloop
endfacet
facet normal -0.3229 0.0000 0.9464
outer loop
vertex -43.3211 -11.3030 611.6478
vertex -37.5957 -10.9293 613.6014
vertex -43.3211 11.3030 611.6478
endloop
endfacet
facet normal -0.3229 0.0000 0.9464
outer loop
vertex -37.5957 -10.9293 613.6014
vertex -37.5957 10.9293 613.6014
vertex -43.3211 11.3030 611.6478
endloop
endfacet
facet normal 0.1105 -0.8651 -0.4893
outer loop
vertex -43.3211 11.3030 611.6478
vertex -37.5957 10.9293 613.6014
vertex -49.3686 0.0000 630.2678
endloop
endfacet
facet normal 0.1142 -0.8658 -0.4871
outer loop
vertex -37.5957 10.9293 613.6014
vertex -42.6847 0.0000 631.8347
vertex -49.3686 0.0000 630.2678
endloop
endfacet
facet normal 0.0935 0.8652 -0.4926
outer loop
vertex -42.6847 0.0000 631.8347
vertex -36.0292 0.0000 633.0976
vertex -37.5957 -10.9293 613.6014
endloop
endfacet
facet normal 0.0892 0.8657 -0.4925
outer loop
vertex -36.0292 0.0000 633.0976
vertex -31.8560 -10.5556 615.2975
vertex -37.5957 -10.9293 613.6014
endloop
endfacet
facet normal -0.2834 0.0000 0.9590
outer loop
vertex -37.5957 -10.9293 613.6014
vertex -31.8560 -10.5556 615.2975
vertex -37.5957 10.9293 613.6014
endloop
endfacet
facet normal -0.2834 0.0000 0.9590
outer loop
vertex -31.8560 -10.5556 615.2975
vertex -31.8560 10.5556 615.2975
vertex -37.5957 10.9293 613.6014
endloop
endfacet
facet normal 0.0895 -0.8651 -0.4936
outer loop
vertex -37.5957 10.9293 613.6014
vertex -31.8560 10.5556 615.2975
vertex -42.6847 0.0000 631.8347
endloop
endfacet
facet normal 0.0933 -0.8658 -0.4916
outer loop
vertex -31.8560 10.5556 615.2975
vertex -36.0292 0.0000 633.0976
vertex -42.6847 0.0000 631.8347
endloop
endfacet
facet normal 0.0724 0.8652 -0.4961
outer loop
vertex -36.0292 0.0000 633.0976
vertex -29.4040 0.0000 634.0643
vertex -31.8560 -10.5556 615.2975
endloop
endfacet
facet normal 0.0681 0.8657 -0.4958
outer loop
vertex -29.4040 0.0000 634.0643
vertex -26.1012 -10.1818 616.7409
vertex -31.8560 -10.5556 615.2975
endloop
endfacet
facet normal -0.2433 0.0000 0.9700
outer loop
vertex -31.8560 -10.5556 615.2975
vertex -26.1012 -10.1818 616.7409
vertex -31.8560 10.5556 615.2975
endloop
endfacet
facet normal -0.2433 0.0000 0.9700
outer loop
vertex -26.1012 -10.1818 616.7409
vertex -26.1012 10.1818 616.7409
vertex -31.8560 10.5556 615.2975
endloop
endfacet
facet normal 0.0685 -0.8651 -0.4969
outer loop
vertex -31.8560 10.5556 615.2975
vertex -26.1012 10.1818 616.7409
vertex -36.0292 0.0000 633.0976
endloop
endfacet
facet normal 0.0722 -0.8658 -0.4951
outer loop
vertex -26.1012 10.1818 616.7409
vertex -29.4040 0.0000 634.0643
vertex -36.0292 0.0000 633.0976
endloop
endfacet
facet normal 0.0512 0.8652 -0.4988
outer loop
vertex -29.4040 0.0000 634.0643
vertex -22.8106 0.0000 634.7414
vertex -26.1012 -10.1818 616.7409
endloop
endfacet
facet normal 0.0471 0.8657 -0.4983
outer loop
vertex -22.8106 0.0000 634.7414
vertex -20.3306 -9.8081 617.9353
vertex -26.1012 -10.1818 616.7409
endloop
endfacet
facet normal -0.2027 0.0000 0.9792
outer loop
vertex -26.1012 -10.1818 616.7409
vertex -20.3306 -9.8081 617.9353
vertex -26.1012 10.1818 616.7409
endloop
endfacet
facet normal -0.2027 0.0000 0.9792
outer loop
vertex -20.3306 -9.8081 617.9353
vertex -20.3306 9.8081 617.9353
vertex -26.1012 10.1818 616.7409
endloop
endfacet
facet normal 0.0473 -0.8651 -0.4994
outer loop
vertex -26.1012 10.1818 616.7409
vertex -20.3306 9.8081 617.9353
vertex -29.4040 0.0000 634.0643
endloop
endfacet
facet normal 0.0511 -0.8658 -0.4977
outer loop
vertex -20.3306 9.8081 617.9353
vertex -22.8106 0.0000 634.7414
vertex -29.4040 0.0000 634.0643
endloop
endfacet
facet normal 0.0300 0.8652 -0.5005
outer loop
vertex -22.8106 0.0000 634.7414
vertex -16.2501 0.0000 635.1347
vertex -20.3306 -9.8081 617.9353
endloop
endfacet
facet normal 0.0260 0.8657 -0.4998
outer loop
vertex -16.2501 0.0000 635.1347
vertex -14.5434 -9.4343 618.8834
vertex -20.3306 -9.8081 617.9353
endloop
endfacet
facet normal -0.1617 0.0000 0.9868
outer loop
vertex -20.3306 -9.8081 617.9353
vertex -14.5434 -9.4343 618.8834
vertex -20.3306 9.8081 617.9353
endloop
endfacet
facet normal -0.1617 0.0000 0.9868
outer loop
vertex -14.5434 -9.4343 618.8834
vertex -14.5434 9.4343 618.8834
vertex -20.3306 9.8081 617.9353
endloop
endfacet
facet normal 0.0262 -0.8651 -0.5010
outer loop
vertex -20.3306 9.8081 617.9353
vertex -14.5434 9.4343 618.8834
vertex -22.8106 0.0000 634.7414
endloop
endfacet
facet normal 0.0300 -0.8658 -0.4995
outer loop
vertex -14.5434 9.4343 618.8834
vertex -16.2501 0.0000 635.1347
vertex -22.8106 0.0000 634.7414
endloop
endfacet
facet normal 0.0088 0.8652 -0.5013
outer loop
vertex -16.2501 0.0000 635.1347
vertex -9.7237 0.0000 635.2494
vertex -14.5434 -9.4343 618.8834
endloop
endfacet
facet normal 0.0049 0.8657 -0.5005
outer loop
vertex -9.7237 0.0000 635.2494
vertex -8.7392 -9.0606 619.5869
vertex -14.5434 -9.4343 618.8834
endloop
endfacet
facet normal -0.1203 0.0000 0.9927
outer loop
vertex -14.5434 -9.4343 618.8834
vertex -8.7392 -9.0606 619.5869
vertex -14.5434 9.4343 618.8834
endloop
endfacet
facet normal -0.1203 0.0000 0.9927
outer loop
vertex -8.7392 -9.0606 619.5869
vertex -8.7392 9.0606 619.5869
vertex -14.5434 9.4343 618.8834
endloop
endfacet
facet normal 0.0051 -0.8651 -0.5017
outer loop
vertex -14.5434 9.4343 618.8834
vertex -8.7392 9.0606 619.5869
vertex -16.2501 0.0000 635.1347
endloop
endfacet
facet normal 0.0088 -0.8658 -0.5003
outer loop
vertex -8.7392 9.0606 619.5869
vertex -9.7237 0.0000 635.2494
vertex -16.2501 0.0000 635.1347
endloop
endfacet
facet normal -0.0124 0.8652 -0.5013
outer loop
vertex -9.7237 0.0000 635.2494
vertex -3.2323 0.0000 635.0894
vertex -8.7392 -9.0606 619.5869
endloop
endfacet
facet normal -0.0161 0.8657 -0.5003
outer loop
vertex -3.2323 0.0000 635.0894
vertex -2.9175 -8.6869 620.0466
vertex -8.7392 -9.0606 619.5869
endloop
endfacet
facet normal -0.0787 0.0000 0.9969
outer loop
vertex -8.7392 -9.0606 619.5869
vertex -2.9175 -8.6869 620.0466
vertex -8.7392 9.0606 619.5869
endloop
endfacet
facet normal -0.0787 0.0000 0.9969
outer loop
vertex -2.9175 -8.6869 620.0466
vertex -2.9175 8.6869 620.0466
vertex -8.7392 9.0606 619.5869
endloop
endfacet
facet normal -0.0159 -0.8651 -0.5014
outer loop
vertex -8.7392 9.0606 619.5869
vertex -2.9175 8.6869 620.0466
vertex -9.7237 0.0000 635.2494
endloop
endfacet
facet normal -0.0123 -0.8658 -0.5002
outer loop
vertex -2.9175 8.6869 620.0466
vertex -3.2323 0.0000 635.0894
vertex -9.7237 0.0000 635.2494
endloop
endfacet
facet normal 0.0000 0.8660 -0.5001
outer loop
vertex -3.2323 0.0000 635.0894
vertex 3.2323 0.0000 635.0894
vertex -2.9175 -8.6869 620.0466
endloop
endfacet
facet normal 0.0000 0.8660 -0.5001
outer loop
vertex 3.2323 0.0000 635.0894
vertex 2.9175 -8.6869 620.0466
vertex -2.9175 -8.6869 620.0466
endloop
endfacet
facet normal 0.0000 0.0000 1.0000
outer loop
vertex -2.9175 -8.6869 620.0466
vertex 2.9175 -8.6869 620.0466
vertex -2.9175 8.6869 620.0466
endloop
endfacet
facet normal 0.0000 -0.0000 1.0000
outer loop
vertex 2.9175 -8.6869 620.0466
vertex 2.9175 8.6869 620.0466
vertex -2.9175 8.6869 620.0466
endloop
endfacet
facet normal 0.0000 -0.8660 -0.5001
outer loop
vertex -2.9175 8.6869 620.0466
vertex 2.9175 8.6869 620.0466
vertex -3.2323 0.0000 635.0894
endloop
endfacet
facet normal 0.0000 -0.8660 -0.5001
outer loop
vertex 2.9175 8.6869 620.0466
vertex 3.2323 0.0000 635.0894
vertex -3.2323 0.0000 635.0894
endloop
endfacet
facet normal 0.0123 0.8658 -0.5002
outer loop
vertex 3.2323 0.0000 635.0894
vertex 9.7237 0.0000 635.2494
vertex 2.9175 -8.6869 620.0466
endloop
endfacet
facet normal 0.0159 0.8651 -0.5014
outer loop
vertex 9.7237 0.0000 635.2494
vertex 8.7392 -9.0606 619.5869
vertex 2.9175 -8.6869 620.0466
endloop
endfacet
facet normal 0.0787 -0.0000 0.9969
outer loop
vertex 2.9175 -8.6869 620.0466
vertex 8.7392 -9.0606 619.5869
vertex 2.9175 8.6869 620.0466
endloop
endfacet
facet normal 0.0787 -0.0000 0.9969
outer loop
vertex 8.7392 -9.0606 619.5869
vertex 8.7392 9.0606 619.5869
vertex 2.9175 8.6869 620.0466
endloop
endfacet
facet normal 0.0161 -0.8657 -0.5003
outer loop
vertex 2.9175 8.6869 620.0466
vertex 8.7392 9.0606 619.5869
vertex 3.2323 0.0000 635.0894
endloop
endfacet
facet normal 0.0124 -0.8652 -0.5013
outer loop
vertex 8.7392 9.0606 619.5869
vertex 9.7237 0.0000 635.2494
vertex 3.2323 0.0000 635.0894
endloop
endfacet
facet normal -0.0088 0.8658 -0.5003
outer loop
vertex 9.7237 0.0000 635.2494
vertex 16.2501 0.0000 635.1347
vertex 8.7392 -9.0606 619.5869
endloop
endfacet
facet normal -0.0051 0.8651 -0.5017
outer loop
vertex 16.2501 0.0000 635.1347
vertex 14.5434 -9.4343 618.8834
vertex 8.7392 -9.0606 619.5869
endloop
endfacet
facet normal 0.1203 -0.0000 0.9927
outer loop
vertex 8.7392 -9.0606 619.5869
vertex 14.5434 -9.4343 618.8834
vertex 8.7392 9.0606 619.5869
endloop
endfacet
facet normal 0.1203 -0.0000 0.9927
outer loop
vertex 14.5434 -9.4343 618.8834
vertex 14.5434 9.4343 618.8834
vertex 8.7392 9.0606 619.5869
endloop
endfacet
facet normal -0.0049 -0.8657 -0.5005
outer loop
vertex 8.7392 9.0606 619.5869
vertex 14.5434 9.4343 618.8834
vertex 9.7237 0.0000 635.2494
endloop
endfacet
facet normal -0.0088 -0.8652 -0.5013
outer loop
vertex 14.5434 9.4343 618.8834
vertex 16.2501 0.0000 635.1347
vertex 9.7237 0.0000 635.2494
endloop
endfacet
facet normal -0.0300 0.8658 -0.4995
outer loop
vertex 16.2501 0.0000 635.1347
vertex 22.8106 0.0000 634.7414
vertex 14.5434 -9.4343 618.8834
endloop
endfacet
facet normal -0.0262 0.8651 -0.5010
outer loop
vertex 22.8106 0.0000 634.7414
vertex 20.3306 -9.8081 617.9353
vertex 14.5434 -9.4343 618.8834
endloop
endfacet
facet normal 0.1617 -0.0000 0.9868
outer loop
vertex 14.5434 -9.4343 618.8834
vertex 20.3306 -9.8081 617.9353
vertex 14.5434 9.4343 618.8834
endloop
endfacet
facet normal 0.1617 -0.0000 0.9868
outer loop
vertex 20.3306 -9.8081 617.9353
vertex 20.3306 9.8081 617.9353
vertex 14.5434 9.4343 618.8834
endloop
endfacet
facet normal -0.0260 -0.8657 -0.4998
outer loop
vertex 14.5434 9.4343 618.8834
vertex 20.3306 9.8081 617.9353
vertex 16.2501 0.0000 635.1347
endloop
endfacet
facet normal -0.0300 -0.8652 -0.5005
outer loop
vertex 20.3306 9.8081 617.9353
vertex 22.8106 0.0000 634.7414
vertex 16.2501 0.0000 635.1347
endloop
endfacet
facet normal -0.0511 0.8658 -0.4977
outer loop
vertex 22.8106 0.0000 634.7414
vertex 29.4040 0.0000 634.0643
vertex 20.3306 -9.8081 617.9353
endloop
endfacet
facet normal -0.0473 0.8651 -0.4994
outer loop
vertex 29.4040 0.0000 634.0643
vertex 26.1012 -10.1818 616.7409
vertex 20.3306 -9.8081 617.9353
endloop
endfacet
facet normal 0.2027 -0.0000 0.9792
outer loop
vertex 20.3306 -9.8081 617.9353
vertex 26.1012 -10.1818 616.7409
vertex 20.3306 9.8081 617.9353
endloop
endfacet
facet normal 0.2027 -0.0000 0.9792
outer loop
vertex 26.1012 -10.1818 616.7409
vertex 26.1012 10.1818 616.7409
vertex 20.3306 9.8081 617.9353
endloop
endfacet
facet normal -0.0471 -0.8657 -0.4983
outer loop
vertex 20.3306 9.8081 617.9353
vertex 26.1012 10.1818 616.7409
vertex 22.8106 0.0000 634.7414
endloop
endfacet
facet normal -0.0512 -0.8652 -0.4988
outer loop
vertex 26.1012 10.1818 616.7409
vertex 29.4040 0.0000 634.0643
vertex 22.8106 0.0000 634.7414
endloop
endfacet
facet normal -0.0722 0.8658 -0.4951
outer loop
vertex 29.4040 0.0000 634.0643
vertex 36.0292 0.0000 633.0976
vertex 26.1012 -10.1818 616.7409
endloop
endfacet
facet normal -0.0685 0.8651 -0.4969
outer loop
vertex 36.0292 0.0000 633.0976
vertex 31.8560 -10.5556 615.2975
vertex 26.1012 -10.1818 616.7409
endloop
endfacet
facet normal 0.2433 -0.0000 0.9700
outer loop
vertex 26.1012 -10.1818 616.7409
vertex 31.8560 -10.5556 615.2975
vertex 26.1012 10.1818 616.7409
endloop
endfacet
facet normal 0.2433 -0.0000 0.9700
outer loop
vertex 31.8560 -10.5556 615.2975
vertex 31.8560 10.5556 615.2975
vertex 26.1012 10.1818 616.7409
endloop
endfacet
facet normal -0.0681 -0.8657 -0.4958
outer loop
vertex 26.1012 10.1818 616.7409
vertex 31.8560 10.5556 615.2975
vertex 29.4040 0.0000 634.0643
endloop
endfacet
facet normal -0.0724 -0.8652 -0.4961
outer loop
vertex 31.8560 10.5556 615.2975
vertex 36.0292 0.0000 633.0976
vertex 29.4040 0.0000 634.0643
endloop
endfacet
facet normal -0.0933 0.8658 -0.4916
outer loop
vertex 36.0292 0.0000 633.0976
vertex 42.6847 0.0000 631.8347
vertex 31.8560 -10.5556 615.2975
endloop
endfacet
facet normal -0.0895 0.8651 -0.4936
outer loop
vertex 42.6847 0.0000 631.8347
vertex 37.5957 -10.9293 613.6014
vertex 31.8560 -10.5556 615.2975
endloop
endfacet
facet normal 0.2834 -0.0000 0.9590
outer loop
vertex 31.8560 -10.5556 615.2975
vertex 37.5957 -10.9293 613.6014
vertex 31.8560 10.5556 615.2975
endloop
endfacet
facet normal 0.2834 -0.0000 0.9590
outer loop
vertex 37.5957 -10.9293 613.6014
vertex 37.5957 10.9293 613.6014
vertex 31.8560 10.5556 615.2975
endloop
endfacet
facet normal -0.0892 -0.8657 -0.4925
outer loop
vertex 31.8560 10.5556 615.2975
vertex 37.5957 10.9293 613.6014
vertex 36.0292 0.0000 633.0976
endloop
endfacet
facet normal -0.0935 -0.8652 -0.4926
outer loop
vertex 37.5957 10.9293 613.6014
vertex 42.6847 0.0000 631.8347
vertex 36.0292 0.0000 633.0976
endloop
endfacet
facet normal -0.1142 0.8658 -0.4871
outer loop
vertex 42.6847 0.0000 631.8347
vertex 49.3686 0.0000 630.2678
vertex 37.5957 -10.9293 613.6014
endloop
endfacet
facet normal -0.1105 0.8651 -0.4893
outer loop
vertex 49.3686 0.0000 630.2678
vertex 43.3211 -11.3030 611.6478
vertex 37.5957 -10.9293 613.6014
endloop
endfacet
facet normal 0.3229 -0.0000 0.9464
outer loop
vertex 37.5957 -10.9293 613.6014
vertex 43.3211 -11.3030 611.6478
vertex 37.5957 10.9293 613.6014
endloop
endfacet
facet normal 0.3229 -0.0000 0.9464
outer loop
vertex 43.3211 -11.3030 611.6478
vertex 43.3211 11.3030 611.6478
vertex 37.5957 10.9293 613.6014
endloop
endfacet
facet normal -0.1101 -0.8657 -0.4882
outer loop
vertex 37.5957 10.9293 613.6014
vertex 43.3211 11.3030 611.6478
vertex 42.6847 0.0000 631.8347
endloop
endfacet
facet normal -0.1144 -0.8653 -0.4881
outer loop
vertex 43.3211 11.3030 611.6478
vertex 49.3686 0.0000 630.2678
vertex 42.6847 0.0000 631.8347
endloop
endfacet
facet normal -0.1349 0.8658 -0.4818
outer loop
vertex 49.3686 0.0000 630.2678
vertex 56.0791 0.0000 628.3886
vertex 43.3211 -11.3030 611.6478
endloop
endfacet
facet normal -0.1313 0.8651 -0.4841
outer loop
vertex 56.0791 0.0000 628.3886
vertex 49.0333 -11.6768 609.4309
vertex 43.3211 -11.3030 611.6478
endloop
endfacet
facet normal 0.3618 -0.0000 0.9322
outer loop
vertex 43.3211 -11.3030 611.6478
vertex 49.0333 -11.6768 609.4309
vertex 43.3211 11.3030 611.6478
endloop
endfacet
facet normal 0.3618 -0.0000 0.9322
outer loop
vertex 49.0333 -11.6768 609.4309
vertex 49.0333 11.6768 609.4309
vertex 43.3211 11.3030 611.6478
endloop
endfacet
facet normal -0.1308 -0.8658 -0.4831
outer loop
vertex 43.3211 11.3030 611.6478
vertex 49.0333 11.6768 609.4309
vertex 49.3686 0.0000 630.2678
endloop
endfacet
facet normal -0.1352 -0.8653 -0.4827
outer loop
vertex 49.0333 11.6768 609.4309
vertex 56.0791 0.0000 628.3886
vertex 49.3686 0.0000 630.2678
endloop
endfacet
facet normal -0.1554 0.8659 -0.4756
outer loop
vertex 56.0791 0.0000 628.3886
vertex 62.8140 0.0000 626.1879
vertex 49.0333 -11.6768 609.4309
endloop
endfacet
facet normal -0.1518 0.8651 -0.4780
outer loop
vertex 62.8140 0.0000 626.1879
vertex 54.7332 -12.0505 606.9436
vertex 49.0333 -11.6768 609.4309
endloop
endfacet
facet normal 0.3999 -0.0000 0.9165
outer loop
vertex 49.0333 -11.6768 609.4309
vertex 54.7332 -12.0505 606.9436
vertex 49.0333 11.6768 609.4309
endloop
endfacet
facet normal 0.3999 -0.0000 0.9165
outer loop
vertex 54.7332 -12.0505 606.9436
vertex 54.7332 12.0505 606.9436
vertex 49.0333 11.6768 609.4309
endloop
endfacet
facet normal -0.1514 -0.8658 -0.4770
outer loop
vertex 49.0333 11.6768 609.4309
vertex 54.7332 12.0505 606.9436
vertex 56.0791 0.0000 628.3886
endloop
endfacet
facet normal -0.1557 -0.8653 -0.4765
outer loop
vertex 54.7332 12.0505 606.9436
vertex 62.8140 0.0000 626.1879
vertex 56.0791 0.0000 628.3886
endloop
endfacet
facet normal -0.1756 0.8659 -0.4685
outer loop
vertex 62.8140 0.0000 626.1879
vertex 69.5709 0.0000 623.6557
vertex 54.7332 -12.0505 606.9436
endloop
endfacet
facet normal -0.1722 0.8652 -0.4710
outer loop
vertex 69.5709 0.0000 623.6557
vertex 60.4222 -12.4242 604.1778
vertex 54.7332 -12.0505 606.9436
endloop
endfacet
facet normal 0.4372 -0.0000 0.8993
outer loop
vertex 54.7332 -12.0505 606.9436
vertex 60.4222 -12.4242 604.1778
vertex 54.7332 12.0505 606.9436
endloop
endfacet
facet normal 0.4372 -0.0000 0.8993
outer loop
vertex 60.4222 -12.4242 604.1778
vertex 60.4222 12.4242 604.1778
vertex 54.7332 12.0505 606.9436
endloop
endfacet
facet normal -0.1717 -0.8658 -0.4701
outer loop
vertex 54.7332 12.0505 606.9436
vertex 60.4222 12.4242 604.1778
vertex 62.8140 0.0000 626.1879
endloop
endfacet
facet normal -0.1759 -0.8653 -0.4693
outer loop
vertex 60.4222 12.4242 604.1778
vertex 69.5709 0.0000 623.6557
vertex 62.8140 0.0000 626.1879
endloop
endfacet
facet normal -0.1954 0.8659 -0.4605
outer loop
vertex 69.5709 0.0000 623.6557
vertex 76.3470 0.0000 620.7810
vertex 60.4222 -12.4242 604.1778
endloop
endfacet
facet normal -0.1921 0.8652 -0.4632
outer loop
vertex 76.3470 0.0000 620.7810
vertex 66.1015 -12.7980 601.1240
vertex 60.4222 -12.4242 604.1778
endloop
endfacet
facet normal 0.4736 -0.0000 0.8808
outer loop
vertex 60.4222 -12.4242 604.1778
vertex 66.1015 -12.7980 601.1240
vertex 60.4222 12.4242 604.1778
endloop
endfacet
facet normal 0.4736 -0.0000 0.8808
outer loop
vertex 66.1015 -12.7980 601.1240
vertex 66.1015 12.7980 601.1240
vertex 60.4222 12.4242 604.1778
endloop
endfacet
facet normal -0.1916 -0.8658 -0.4623
outer loop
vertex 60.4222 12.4242 604.1778
vertex 66.1015 12.7980 601.1240
vertex 69.5709 0.0000 623.6557
endloop
endfacet
facet normal -0.1957 -0.8653 -0.4614
outer loop
vertex 66.1015 12.7980 601.1240
vertex 76.3470 0.0000 620.7810
vertex 69.5709 0.0000 623.6557
endloop
endfacet
facet normal -0.2148 0.8659 -0.4518
outer loop
vertex 76.3470 0.0000 620.7810
vertex 83.1396 0.0000 617.5523
vertex 66.1015 -12.7980 601.1240
endloop
endfacet
facet normal -0.2117 0.8652 -0.4545
outer loop
vertex 83.1396 0.0000 617.5523
vertex 71.7726 -13.1717 597.7716
vertex 66.1015 -12.7980 601.1240
endloop
endfacet
facet normal 0.5089 -0.0000 0.8608
outer loop
vertex 66.1015 -12.7980 601.1240
vertex 71.7726 -13.1717 597.7716
vertex 66.1015 12.7980 601.1240
endloop
endfacet
facet normal 0.5089 -0.0000 0.8608
outer loop
vertex 71.7726 -13.1717 597.7716
vertex 71.7726 13.1717 597.7716
vertex 66.1015 12.7980 601.1240
endloop
endfacet
facet normal -0.2111 -0.8658 -0.4537
outer loop
vertex 66.1015 12.7980 601.1240
vertex 71.7726 13.1717 597.7716
vertex 76.3470 0.0000 620.7810
endloop
endfacet
facet normal -0.2151 -0.8654 -0.4526
outer loop
vertex 71.7726 13.1717 597.7716
vertex 83.1396 0.0000 617.5523
vertex 76.3470 0.0000 620.7810
endloop
endfacet
facet normal -0.2336 0.8659 -0.4423
outer loop
vertex 83.1396 0.0000 617.5523
vertex 89.9456 0.0000 613.9571
vertex 71.7726 -13.1717 597.7716
endloop
endfacet
facet normal -0.2307 0.8653 -0.4451
outer loop
vertex 89.9456 0.0000 613.9571
vertex 77.4370 -13.5455 594.1084
vertex 71.7726 -13.1717 597.7716
endloop
endfacet
facet normal 0.5430 -0.0000 0.8397
outer loop
vertex 71.7726 -13.1717 597.7716
vertex 77.4370 -13.5455 594.1084
vertex 71.7726 13.1717 597.7716
endloop
endfacet
facet normal 0.5430 -0.0000 0.8397
outer loop
vertex 77.4370 -13.5455 594.1084
vertex 77.4370 13.5455 594.1084
vertex 71.7726 13.1717 597.7716
endloop
endfacet
facet normal -0.2302 -0.8658 -0.4443
outer loop
vertex 71.7726 13.1717 597.7716
vertex 77.4370 13.5455 594.1084
vertex 83.1396 0.0000 617.5523
endloop
endfacet
facet normal -0.2340 -0.8654 -0.4431
outer loop
vertex 77.4370 13.5455 594.1084
vertex 89.9456 0.0000 613.9571
vertex 83.1396 0.0000 617.5523
endloop
endfacet
facet normal -0.2520 0.8659 -0.4321
outer loop
vertex 89.9456 0.0000 613.9571
vertex 96.7621 0.0000 609.9823
vertex 77.4370 -13.5455 594.1084
endloop
endfacet
facet normal -0.2493 0.8653 -0.4349
outer loop
vertex 96.7621 0.0000 609.9823
vertex 83.0961 -13.9192 590.1210
vertex 77.4370 -13.5455 594.1084
endloop
endfacet
facet normal 0.5760 -0.0000 0.8175
outer loop
vertex 77.4370 -13.5455 594.1084
vertex 83.0961 -13.9192 590.1210
vertex 77.4370 13.5455 594.1084
endloop
endfacet
facet normal 0.5760 -0.0000 0.8175
outer loop
vertex 83.0961 -13.9192 590.1210
vertex 83.0961 13.9192 590.1210
vertex 77.4370 13.5455 594.1084
endloop
endfacet
facet normal -0.2487 -0.8658 -0.4341
outer loop
vertex 77.4370 13.5455 594.1084
vertex 83.0961 13.9192 590.1210
vertex 89.9456 0.0000 613.9571
endloop
endfacet
facet normal -0.2524 -0.8654 -0.4328
outer loop
vertex 83.0961 13.9192 590.1210
vertex 96.7621 0.0000 609.9823
vertex 89.9456 0.0000 613.9571
endloop
endfacet
facet normal -0.2697 0.8659 -0.4213
outer loop
vertex 96.7621 0.0000 609.9823
vertex 103.5859 0.0000 605.6138
vertex 83.0961 -13.9192 590.1210
endloop
endfacet
facet normal -0.2672 0.8653 -0.4240
outer loop
vertex 103.5859 0.0000 605.6138
vertex 88.7516 -14.2929 585.7944
vertex 83.0961 -13.9192 590.1210
endloop
endfacet
facet normal 0.6076 -0.0000 0.7942
outer loop
vertex 83.0961 -13.9192 590.1210
vertex 88.7516 -14.2929 585.7944
vertex 83.0961 13.9192 590.1210
endloop
endfacet
facet normal 0.6076 -0.0000 0.7942
outer loop
vertex 88.7516 -14.2929 585.7944
vertex 88.7516 14.2929 585.7944
vertex 83.0961 13.9192 590.1210
endloop
endfacet
facet normal -0.2666 -0.8658 -0.4233
outer loop
vertex 83.0961 13.9192 590.1210
vertex 88.7516 14.2929 585.7944
vertex 96.7621 0.0000 609.9823
endloop
endfacet
facet normal -0.2701 -0.8654 -0.4219
outer loop
vertex 88.7516 14.2929 585.7944
vertex 103.5859 0.0000 605.6138
vertex 96.7621 0.0000 609.9823
endloop
endfacet
facet normal -0.2867 0.8659 -0.4098
outer loop
vertex 103.5859 0.0000 605.6138
vertex 110.4138 0.0000 600.8366
vertex 88.7516 -14.2929 585.7944
endloop
endfacet
facet normal -0.2845 0.8654 -0.4126
outer loop
vertex 110.4138 0.0000 600.8366
vertex 94.4050 -14.6667 581.1122
vertex 88.7516 -14.2929 585.7944
endloop
endfacet
facet normal 0.6379 -0.0000 0.7702
outer loop
vertex 88.7516 -14.2929 585.7944
vertex 94.4050 -14.6667 581.1122
vertex 88.7516 14.2929 585.7944
endloop
endfacet
facet normal 0.6379 -0.0000 0.7702
outer loop
vertex 94.4050 -14.6667 581.1122
vertex 94.4050 14.6667 581.1122
vertex 88.7516 14.2929 585.7944
endloop
endfacet
facet normal -0.2839 -0.8659 -0.4119
outer loop
vertex 88.7516 14.2929 585.7944
vertex 94.4050 14.6667 581.1122
vertex 103.5859 0.0000 605.6138
endloop
endfacet
facet normal -0.2872 -0.8655 -0.4105
outer loop
vertex 94.4050 14.6667 581.1122
vertex 110.4138 0.0000 600.8366
vertex 103.5859 0.0000 605.6138
endloop
endfacet
facet normal -0.3031 0.8659 -0.3979
outer loop
vertex 110.4138 0.0000 600.8366
vertex 117.2430 0.0000 595.6346
vertex 94.4050 -14.6667 581.1122
endloop
endfacet
facet normal -0.3010 0.8654 -0.4006
outer loop
vertex 117.2430 0.0000 595.6346
vertex 100.0578 -15.0404 576.0563
vertex 94.4050 -14.6667 581.1122
endloop
endfacet
facet normal 0.6667 -0.0000 0.7454
outer loop
vertex 94.4050 -14.6667 581.1122
vertex 100.0578 -15.0404 576.0563
vertex 94.4050 14.6667 581.1122
endloop
endfacet
facet normal 0.6667 -0.0000 0.7454
outer loop
vertex 100.0578 -15.0404 576.0563
vertex 100.0578 15.0404 576.0563
vertex 94.4050 14.6667 581.1122
endloop
endfacet
facet normal -0.3005 -0.8659 -0.4000
outer loop
vertex 94.4050 14.6667 581.1122
vertex 100.0578 15.0404 576.0563
vertex 110.4138 0.0000 600.8366
endloop
endfacet
facet normal -0.3035 -0.8655 -0.3985
outer loop
vertex 100.0578 15.0404 576.0563
vertex 117.2430 0.0000 595.6346
vertex 110.4138 0.0000 600.8366
endloop
endfacet
facet normal -0.3187 0.8659 -0.3855
outer loop
vertex 117.2430 0.0000 595.6346
vertex 124.0706 0.0000 589.9909
vertex 100.0578 -15.0404 576.0563
endloop
endfacet
facet normal -0.3169 0.8654 -0.3881
outer loop
vertex 124.0706 0.0000 589.9909
vertex 105.7114 -15.4141 570.6071
vertex 100.0578 -15.0404 576.0563
endloop
endfacet
facet normal 0.6940 -0.0000 0.7200
outer loop
vertex 100.0578 -15.0404 576.0563
vertex 105.7114 -15.4141 570.6071
vertex 100.0578 15.0404 576.0563
endloop
endfacet
facet normal 0.6940 -0.0000 0.7200
outer loop
vertex 105.7114 -15.4141 570.6071
vertex 105.7114 15.4141 570.6071
vertex 100.0578 15.0404 576.0563
endloop
endfacet
facet normal -0.3163 -0.8659 -0.3876
outer loop
vertex 100.0578 15.0404 576.0563
vertex 105.7114 15.4141 570.6071
vertex 117.2430 0.0000 595.6346
endloop
endfacet
facet normal -0.3191 -0.8655 -0.3860
outer loop
vertex 105.7114 15.4141 570.6071
vertex 124.0706 0.0000 589.9909
vertex 117.2430 0.0000 595.6346
endloop
endfacet
facet normal -0.3335 0.8659 -0.3728
outer loop
vertex 124.0706 0.0000 589.9909
vertex 130.8938 0.0000 583.8871
vertex 105.7114 -15.4141 570.6071
endloop
endfacet
facet normal -0.3319 0.8655 -0.3753
outer loop
vertex 130.8938 0.0000 583.8871
vertex 111.3672 -15.7879 564.7434
vertex 105.7114 -15.4141 570.6071
endloop
endfacet
facet normal 0.7198 -0.0000 0.6942
outer loop
vertex 105.7114 -15.4141 570.6071
vertex 111.3672 -15.7879 564.7434
vertex 105.7114 15.4141 570.6071
endloop
endfacet
facet normal 0.7198 -0.0000 0.6942
outer loop
vertex 111.3672 -15.7879 564.7434
vertex 111.3672 15.7879 564.7434
vertex 105.7114 15.4141 570.6071
endloop
endfacet
facet normal -0.3313 -0.8659 -0.3748
outer loop
vertex 105.7114 15.4141 570.6071
vertex 111.3672 15.7879 564.7434
vertex 124.0706 0.0000 589.9909
endloop
endfacet
facet normal -0.3339 -0.8656 -0.3733
outer loop
vertex 111.3672 15.7879 564.7434
vertex 130.8938 0.0000 583.8871
vertex 124.0706 0.0000 589.9909
endloop
endfacet
facet normal -0.3474 0.8659 -0.3598
outer loop
vertex 130.8938 0.0000 583.8871
vertex 137.7103 0.0000 577.3038
vertex 111.3672 -15.7879 564.7434
endloop
endfacet
facet normal -0.3461 0.8655 -0.3621
outer loop
vertex 137.7103 0.0000 577.3038
vertex 117.0264 -16.1616 558.4420
vertex 111.3672 -15.7879 564.7434
endloop
endfacet
facet normal 0.7440 -0.0000 0.6682
outer loop
vertex 111.3672 -15.7879 564.7434
vertex 117.0264 -16.1616 558.4420
vertex 111.3672 15.7879 564.7434
endloop
endfacet
facet normal 0.7440 -0.0000 0.6682
outer loop
vertex 117.0264 -16.1616 558.4420
vertex 117.0264 16.1616 558.4420
vertex 111.3672 15.7879 564.7434
endloop
endfacet
facet normal -0.3455 -0.8659 -0.3617
outer loop
vertex 111.3672 15.7879 564.7434
vertex 117.0264 16.1616 558.4420
vertex 130.8938 0.0000 583.8871
endloop
endfacet
facet normal -0.3479 -0.8656 -0.3602
outer loop
vertex 117.0264 16.1616 558.4420
vertex 137.7103 0.0000 577.3038
vertex 130.8938 0.0000 583.8871
endloop
endfacet
facet normal -0.3606 0.8660 -0.3465
outer loop
vertex 137.7103 0.0000 577.3038
vertex 144.5180 0.0000 570.2197
vertex 117.0264 -16.1616 558.4420
endloop
endfacet
facet normal -0.3594 0.8655 -0.3488
outer loop
vertex 144.5180 0.0000 570.2197
vertex 122.6899 -16.5354 551.6782
vertex 117.0264 -16.1616 558.4420
endloop
endfacet
facet normal 0.7667 -0.0000 0.6420
outer loop
vertex 117.0264 -16.1616 558.4420
vertex 122.6899 -16.5354 551.6782
vertex 117.0264 16.1616 558.4420
endloop
endfacet
facet normal 0.7667 -0.0000 0.6420
outer loop
vertex 122.6899 -16.5354 551.6782
vertex 122.6899 16.5354 551.6782
vertex 117.0264 16.1616 558.4420
endloop
endfacet
facet normal -0.3589 -0.8659 -0.3484
outer loop
vertex 117.0264 16.1616 558.4420
vertex 122.6899 16.5354 551.6782
vertex 137.7103 0.0000 577.3038
endloop
endfacet
facet normal -0.3610 -0.8656 -0.3469
outer loop
vertex 122.6899 16.5354 551.6782
vertex 144.5180 0.0000 570.2197
vertex 137.7103 0.0000 577.3038
endloop
endfacet
facet normal -0.3729 0.8660 -0.3332
outer loop
vertex 144.5180 0.0000 570.2197
vertex 151.3150 0.0000 562.6124
vertex 122.6899 -16.5354 551.6782
endloop
endfacet
facet normal -0.3719 0.8656 -0.3353
outer loop
vertex 151.3150 0.0000 562.6124
vertex 128.3588 -16.9091 544.4254
vertex 122.6899 -16.5354 551.6782
endloop
endfacet
facet normal 0.7879 -0.0000 0.6158
outer loop
vertex 122.6899 -16.5354 551.6782
vertex 128.3588 -16.9091 544.4254
vertex 122.6899 16.5354 551.6782
endloop
endfacet
facet normal 0.7879 -0.0000 0.6158
outer loop
vertex 128.3588 -16.9091 544.4254
vertex 128.3588 16.9091 544.4254
vertex 122.6899 16.5354 551.6782
endloop
endfacet
facet normal -0.3714 -0.8659 -0.3350
outer loop
vertex 122.6899 16.5354 551.6782
vertex 128.3588 16.9091 544.4254
vertex 144.5180 0.0000 570.2197
endloop
endfacet
facet normal -0.3733 -0.8656 -0.3336
outer loop
vertex 128.3588 16.9091 544.4254
vertex 151.3150 0.0000 562.6124
vertex 144.5180 0.0000 570.2197
endloop
endfacet
facet normal -0.3845 0.8660 -0.3199
outer loop
vertex 151.3150 0.0000 562.6124
vertex 158.0997 0.0000 554.4573
vertex 128.3588 -16.9091 544.4254
endloop
endfacet
facet normal -0.3836 0.8656 -0.3218
outer loop
vertex 158.0997 0.0000 554.4573
vertex 134.0338 -17.2828 536.6551
vertex 128.3588 -16.9091 544.4254
endloop
endfacet
facet normal 0.8076 -0.0000 0.5898
outer loop
vertex 128.3588 -16.9091 544.4254
vertex 134.0338 -17.2828 536.6551
vertex 128.3588 16.9091 544.4254
endloop
endfacet
facet normal 0.8076 -0.0000 0.5898
outer loop
vertex 134.0338 -17.2828 536.6551
vertex 134.0338 17.2828 536.6551
vertex 128.3588 16.9091 544.4254
endloop
endfacet
facet normal -0.3831 -0.8659 -0.3215
outer loop
vertex 128.3588 16.9091 544.4254
vertex 134.0338 17.2828 536.6551
vertex 151.3150 0.0000 562.6124
endloop
endfacet
facet normal -0.3848 -0.8657 -0.3202
outer loop
vertex 134.0338 17.2828 536.6551
vertex 158.0997 0.0000 554.4573
vertex 151.3150 0.0000 562.6124
endloop
endfacet
facet normal -0.3951 0.8660 -0.3065
outer loop
vertex 158.0997 0.0000 554.4573
vertex 164.8711 0.0000 545.7283
vertex 134.0338 -17.2828 536.6551
endloop
endfacet
facet normal -0.3944 0.8657 -0.3083
outer loop
vertex 164.8711 0.0000 545.7283
vertex 139.7155 -17.6566 528.3369
vertex 134.0338 -17.2828 536.6551
endloop
endfacet
facet normal 0.8258 -0.0000 0.5640
outer loop
vertex 134.0338 -17.2828 536.6551
vertex 139.7155 -17.6566 528.3369
vertex 134.0338 17.2828 536.6551
endloop
endfacet
facet normal 0.8258 -0.0000 0.5640
outer loop
vertex 139.7155 -17.6566 528.3369
vertex 139.7155 17.6566 528.3369
vertex 134.0338 17.2828 536.6551
endloop
endfacet
facet normal -0.3940 -0.8659 -0.3080
outer loop
vertex 134.0338 17.2828 536.6551
vertex 139.7155 17.6566 528.3369
vertex 158.0997 0.0000 554.4573
endloop
endfacet
facet normal -0.3955 -0.8657 -0.3068
outer loop
vertex 139.7155 17.6566 528.3369
vertex 164.8711 0.0000 545.7283
vertex 158.0997 0.0000 554.4573
endloop
endfacet
facet normal -0.4050 0.8660 -0.2933
outer loop
vertex 164.8711 0.0000 545.7283
vertex 171.6282 0.0000 536.3968
vertex 139.7155 -17.6566 528.3369
endloop
endfacet
facet normal -0.4045 0.8657 -0.2949
outer loop
vertex 171.6282 0.0000 536.3968
vertex 145.4044 -18.0303 519.4384
vertex 139.7155 -17.6566 528.3369
endloop
endfacet
facet normal 0.8425 -0.0000 0.5386
outer loop
vertex 139.7155 -17.6566 528.3369
vertex 145.4044 -18.0303 519.4384
vertex 139.7155 17.6566 528.3369
endloop
endfacet
facet normal 0.8425 -0.0000 0.5386
outer loop
vertex 145.4044 -18.0303 519.4384
vertex 145.4044 18.0303 519.4384
vertex 139.7155 17.6566 528.3369
endloop
endfacet
facet normal -0.4041 -0.8660 -0.2947
outer loop
vertex 139.7155 17.6566 528.3369
vertex 145.4044 18.0303 519.4384
vertex 164.8711 0.0000 545.7283
endloop
endfacet
facet normal -0.4054 -0.8657 -0.2936
outer loop
vertex 145.4044 18.0303 519.4384
vertex 171.6282 0.0000 536.3968
vertex 164.8711 0.0000 545.7283
endloop
endfacet
facet normal -0.4142 0.8660 -0.2802
outer loop
vertex 171.6282 0.0000 536.3968
vertex 178.3703 0.0000 526.4322
vertex 145.4044 -18.0303 519.4384
endloop
endfacet
facet normal -0.4137 0.8657 -0.2817
outer loop
vertex 178.3703 0.0000 526.4322
vertex 151.1007 -18.4040 509.9248
vertex 145.4044 -18.0303 519.4384
endloop
endfacet
facet normal 0.8580 -0.0000 0.5137
outer loop
vertex 145.4044 -18.0303 519.4384
vertex 151.1007 -18.4040 509.9248
vertex 145.4044 18.0303 519.4384
endloop
endfacet
facet normal 0.8580 -0.0000 0.5137
outer loop
vertex 151.1007 -18.4040 509.9248
vertex 151.1007 18.4040 509.9248
vertex 145.4044 18.0303 519.4384
endloop
endfacet
facet normal -0.4133 -0.8660 -0.2815
outer loop
vertex 145.4044 18.0303 519.4384
vertex 151.1007 18.4040 509.9248
vertex 171.6282 0.0000 536.3968
endloop
endfacet
facet normal -0.4145 -0.8657 -0.2805
outer loop
vertex 151.1007 18.4040 509.9248
vertex 178.3703 0.0000 526.4322
vertex 171.6282 0.0000 536.3968
endloop
endfacet
facet normal -0.4226 0.8660 -0.2674
outer loop
vertex 178.3703 0.0000 526.4322
vertex 185.0972 0.0000 515.8015
vertex 151.1007 -18.4040 509.9248
endloop
endfacet
facet normal -0.4222 0.8657 -0.2687
outer loop
vertex 185.0972 0.0000 515.8015
vertex 156.8046 -18.7778 499.7595
vertex 151.1007 -18.4040 509.9248
endloop
endfacet
facet normal 0.8721 -0.0000 0.4893
outer loop
vertex 151.1007 -18.4040 509.9248
vertex 156.8046 -18.7778 499.7595
vertex 151.1007 18.4040 509.9248
endloop
endfacet
facet normal 0.8721 -0.0000 0.4893
outer loop
vertex 156.8046 -18.7778 499.7595
vertex 156.8046 18.7778 499.7595
vertex 151.1007 18.4040 509.9248
endloop
endfacet
facet normal -0.4219 -0.8660 -0.2686
outer loop
vertex 151.1007 18.4040 509.9248
vertex 156.8046 18.7778 499.7595
vertex 178.3703 0.0000 526.4322
endloop
endfacet
facet normal -0.4229 -0.8658 -0.2676
outer loop
vertex 156.8046 18.7778 499.7595
vertex 185.0972 0.0000 515.8015
vertex 178.3703 0.0000 526.4322
endloop
endfacet
facet normal -0.4303 0.8660 -0.2548
outer loop
vertex 185.0972 0.0000 515.8015
vertex 191.8087 0.0000 504.4691
vertex 156.8046 -18.7778 499.7595
endloop
endfacet
facet normal -0.4300 0.8658 -0.2560
outer loop
vertex 191.8087 0.0000 504.4691
vertex 162.5163 -19.1515 488.9032
vertex 156.8046 -18.7778 499.7595
endloop
endfacet
facet normal 0.8850 -0.0000 0.4656
outer loop
vertex 156.8046 -18.7778 499.7595
vertex 162.5163 -19.1515 488.9032
vertex 156.8046 18.7778 499.7595
endloop
endfacet
facet normal 0.8850 -0.0000 0.4656
outer loop
vertex 162.5163 -19.1515 488.9032
vertex 162.5163 19.1515 488.9032
vertex 156.8046 18.7778 499.7595
endloop
endfacet
facet normal -0.4297 -0.8660 -0.2559
outer loop
vertex 156.8046 18.7778 499.7595
vertex 162.5163 19.1515 488.9032
vertex 185.0972 0.0000 515.8015
endloop
endfacet
facet normal -0.4306 -0.8658 -0.2550
outer loop
vertex 162.5163 19.1515 488.9032
vertex 191.8087 0.0000 504.4691
vertex 185.0972 0.0000 515.8015
endloop
endfacet
facet normal -0.4373 0.8660 -0.2426
outer loop
vertex 191.8087 0.0000 504.4691
vertex 198.5049 0.0000 492.3967
vertex 162.5163 -19.1515 488.9032
endloop
endfacet
facet normal -0.4371 0.8658 -0.2436
outer loop
vertex 198.5049 0.0000 492.3967
vertex 168.2356 -19.5253 477.3144
vertex 162.5163 -19.1515 488.9032
endloop
endfacet
facet normal 0.8967 -0.0000 0.4426
outer loop
vertex 162.5163 -19.1515 488.9032
vertex 168.2356 -19.5253 477.3144
vertex 162.5163 19.1515 488.9032
endloop
endfacet
facet normal 0.8967 -0.0000 0.4426
outer loop
vertex 168.2356 -19.5253 477.3144
vertex 168.2356 19.5253 477.3144
vertex 162.5163 19.1515 488.9032
endloop
endfacet
facet normal -0.4368 -0.8660 -0.2435
outer loop
vertex 162.5163 19.1515 488.9032
vertex 168.2356 19.5253 477.3144
vertex 191.8087 0.0000 504.4691
endloop
endfacet
facet normal -0.4376 -0.8658 -0.2427
outer loop
vertex 168.2356 19.5253 477.3144
vertex 198.5049 0.0000 492.3967
vertex 191.8087 0.0000 504.4691
endloop
endfacet
facet normal -0.4437 0.8660 -0.2306
outer loop
vertex 198.5049 0.0000 492.3967
vertex 205.1860 0.0000 479.5431
vertex 168.2356 -19.5253 477.3144
endloop
endfacet
facet normal -0.4435 0.8658 -0.2316
outer loop
vertex 205.1860 0.0000 479.5431
vertex 173.9624 -19.8990 464.9486
vertex 168.2356 -19.5253 477.3144
endloop
endfacet
facet normal 0.9074 -0.0000 0.4202
outer loop
vertex 168.2356 -19.5253 477.3144
vertex 173.9624 -19.8990 464.9486
vertex 168.2356 19.5253 477.3144
endloop
endfacet
facet normal 0.9074 -0.0000 0.4202
outer loop
vertex 173.9624 -19.8990 464.9486
vertex 173.9624 19.8990 464.9486
vertex 168.2356 19.5253 477.3144
endloop
endfacet
facet normal -0.4433 -0.8660 -0.2315
outer loop
vertex 168.2356 19.5253 477.3144
vertex 173.9624 19.8990 464.9486
vertex 198.5049 0.0000 492.3967
endloop
endfacet
facet normal -0.4439 -0.8658 -0.2308
outer loop
vertex 173.9624 19.8990 464.9486
vertex 205.1860 0.0000 479.5431
vertex 198.5049 0.0000 492.3967
endloop
endfacet
facet normal -0.4495 0.8660 -0.2191
outer loop
vertex 205.1860 0.0000 479.5431
vertex 211.8525 0.0000 465.8639
vertex 173.9624 -19.8990 464.9486
endloop
endfacet
facet normal -0.4494 0.8658 -0.2199
outer loop
vertex 211.8525 0.0000 465.8639
vertex 179.6966 -20.2727 451.7591
vertex 173.9624 -19.8990 464.9486
endloop
endfacet
facet normal 0.9171 -0.0000 0.3987
outer loop
vertex 173.9624 -19.8990 464.9486
vertex 179.6966 -20.2727 451.7591
vertex 173.9624 19.8990 464.9486
endloop
endfacet
facet normal 0.9171 -0.0000 0.3987
outer loop
vertex 179.6966 -20.2727 451.7591
vertex 179.6966 20.2727 451.7591
vertex 173.9624 19.8990 464.9486
endloop
endfacet
facet normal -0.4492 -0.8660 -0.2198
outer loop
vertex 173.9624 19.8990 464.9486
vertex 179.6966 20.2727 451.7591
vertex 205.1860 0.0000 479.5431
endloop
endfacet
facet normal -0.4497 -0.8659 -0.2192
outer loop
vertex 179.6966 20.2727 451.7591
vertex 211.8525 0.0000 465.8639
vertex 205.1860 0.0000 479.5431
endloop
endfacet
facet normal -0.4548 0.8660 -0.2079
outer loop
vertex 211.8525 0.0000 465.8639
vertex 218.5048 0.0000 451.3118
vertex 179.6966 -20.2727 451.7591
endloop
endfacet
facet normal -0.4547 0.8659 -0.2086
outer loop
vertex 218.5048 0.0000 451.3118
vertex 185.4378 -20.6465 437.6957
vertex 179.6966 -20.2727 451.7591
endloop
endfacet
facet normal 0.9258 -0.0000 0.3780
outer loop
vertex 179.6966 -20.2727 451.7591
vertex 185.4378 -20.6465 437.6957
vertex 179.6966 20.2727 451.7591
endloop
endfacet
facet normal 0.9258 -0.0000 0.3780
outer loop
vertex 185.4378 -20.6465 437.6957
vertex 185.4378 20.6465 437.6957
vertex 179.6966 20.2727 451.7591
endloop
endfacet
facet normal -0.4545 -0.8660 -0.2086
outer loop
vertex 179.6966 20.2727 451.7591
vertex 185.4378 20.6465 437.6957
vertex 211.8525 0.0000 465.8639
endloop
endfacet
facet normal -0.4550 -0.8659 -0.2080
outer loop
vertex 185.4378 20.6465 437.6957
vertex 218.5048 0.0000 451.3118
vertex 211.8525 0.0000 465.8639
endloop
endfacet
facet normal -0.4595 0.8660 -0.1971
outer loop
vertex 218.5048 0.0000 451.3118
vertex 225.1437 0.0000 435.8358
vertex 185.4378 -20.6465 437.6957
endloop
endfacet
facet normal -0.4595 0.8659 -0.1978
outer loop
vertex 225.1437 0.0000 435.8358
vertex 191.1858 -21.0202 422.7054
vertex 185.4378 -20.6465 437.6957
endloop
endfacet
facet normal 0.9337 -0.0000 0.3580
outer loop
vertex 185.4378 -20.6465 437.6957
vertex 191.1858 -21.0202 422.7054
vertex 185.4378 20.6465 437.6957
endloop
endfacet
facet normal 0.9337 -0.0000 0.3580
outer loop
vertex 191.1858 -21.0202 422.7054
vertex 191.1858 21.0202 422.7054
vertex 185.4378 20.6465 437.6957
endloop
endfacet
facet normal -0.4593 -0.8660 -0.1977
outer loop
vertex 185.4378 20.6465 437.6957
vertex 191.1858 21.0202 422.7054
vertex 218.5048 0.0000 451.3118
endloop
endfacet
facet normal -0.4597 -0.8659 -0.1972
outer loop
vertex 191.1858 21.0202 422.7054
vertex 225.1437 0.0000 435.8358
vertex 218.5048 0.0000 451.3118
endloop
endfacet
facet normal -0.4638 0.8660 -0.1868
outer loop
vertex 225.1437 0.0000 435.8358
vertex 231.7696 0.0000 419.3814
vertex 191.1858 -21.0202 422.7054
endloop
endfacet
facet normal -0.4638 0.8659 -0.1874
outer loop
vertex 231.7696 0.0000 419.3814
vertex 196.9402 -21.3939 406.7318
vertex 191.1858 -21.0202 422.7054
endloop
endfacet
facet normal 0.9408 -0.0000 0.3389
outer loop
vertex 191.1858 -21.0202 422.7054
vertex 196.9402 -21.3939 406.7318
vertex 191.1858 21.0202 422.7054
endloop
endfacet
facet normal 0.9408 -0.0000 0.3389
outer loop
vertex 196.9402 -21.3939 406.7318
vertex 196.9402 21.3939 406.7318
vertex 191.1858 21.0202 422.7054
endloop
endfacet
facet normal -0.4636 -0.8660 -0.1873
outer loop
vertex 191.1858 21.0202 422.7054
vertex 196.9402 21.3939 406.7318
vertex 225.1437 0.0000 435.8358
endloop
endfacet
facet normal -0.4640 -0.8659 -0.1869
outer loop
vertex 196.9402 21.3939 406.7318
vertex 231.7696 0.0000 419.3814
vertex 225.1437 0.0000 435.8358
endloop
endfacet
facet normal -0.4677 0.8660 -0.1769
outer loop
vertex 231.7696 0.0000 419.3814
vertex 238.3834 0.0000 401.8904
vertex 196.9402 -21.3939 406.7318
endloop
endfacet
facet normal -0.4677 0.8659 -0.1773
outer loop
vertex 238.3834 0.0000 401.8904
vertex 202.7007 -21.7677 389.7151
vertex 196.9402 -21.3939 406.7318
endloop
endfacet
facet normal 0.9472 -0.0000 0.3206
outer loop
vertex 196.9402 -21.3939 406.7318
vertex 202.7007 -21.7677 389.7151
vertex 196.9402 21.3939 406.7318
endloop
endfacet
facet normal 0.9472 -0.0000 0.3206
outer loop
vertex 202.7007 -21.7677 389.7151
vertex 202.7007 21.7677 389.7151
vertex 196.9402 21.3939 406.7318
endloop
endfacet
facet normal -0.4676 -0.8660 -0.1773
outer loop
vertex 196.9402 21.3939 406.7318
vertex 202.7007 21.7677 389.7151
vertex 231.7696 0.0000 419.3814
endloop
endfacet
facet normal -0.4679 -0.8659 -0.1769
outer loop
vertex 202.7007 21.7677 389.7151
vertex 238.3834 0.0000 401.8904
vertex 231.7696 0.0000 419.3814
endloop
endfacet
facet normal -0.4712 0.8660 -0.1673
outer loop
vertex 238.3834 0.0000 401.8904
vertex 244.9857 0.0000 383.3006
vertex 202.7007 -21.7677 389.7151
endloop
endfacet
facet normal -0.4712 0.8659 -0.1678
outer loop
vertex 244.9857 0.0000 383.3006
vertex 208.4669 -22.1414 371.5915
vertex 202.7007 -21.7677 389.7151
endloop
endfacet
facet normal 0.9529 -0.0000 0.3032
outer loop
vertex 202.7007 -21.7677 389.7151
vertex 208.4669 -22.1414 371.5915
vertex 202.7007 21.7677 389.7151
endloop
endfacet
facet normal 0.9529 -0.0000 0.3032
outer loop
vertex 208.4669 -22.1414 371.5915
vertex 208.4669 22.1414 371.5915
vertex 202.7007 21.7677 389.7151
endloop
endfacet
facet normal -0.4711 -0.8660 -0.1677
outer loop
vertex 202.7007 21.7677 389.7151
vertex 208.4669 22.1414 371.5915
vertex 238.3834 0.0000 401.8904
endloop
endfacet
facet normal -0.4713 -0.8659 -0.1674
outer loop
vertex 208.4669 22.1414 371.5915
vertex 244.9857 0.0000 383.3006
vertex 238.3834 0.0000 401.8904
endloop
endfacet
facet normal -0.4743 0.8660 -0.1583
outer loop
vertex 244.9857 0.0000 383.3006
vertex 251.5773 0.0000 363.5453
vertex 208.4669 -22.1414 371.5915
endloop
endfacet
facet normal -0.4743 0.8659 -0.1586
outer loop
vertex 251.5773 0.0000 363.5453
vertex 214.2385 -22.5152 352.2934
vertex 208.4669 -22.1414 371.5915
endloop
endfacet
facet normal 0.9581 -0.0000 0.2865
outer loop
vertex 208.4669 -22.1414 371.5915
vertex 214.2385 -22.5152 352.2934
vertex 208.4669 22.1414 371.5915
endloop
endfacet
facet normal 0.9581 -0.0000 0.2865
outer loop
vertex 214.2385 -22.5152 352.2934
vertex 214.2385 22.5152 352.2934
vertex 208.4669 22.1414 371.5915
endloop
endfacet
facet normal -0.4742 -0.8660 -0.1586
outer loop
vertex 208.4669 22.1414 371.5915
vertex 214.2385 22.5152 352.2934
vertex 244.9857 0.0000 383.3006
endloop
endfacet
facet normal -0.4744 -0.8659 -0.1583
outer loop
vertex 214.2385 22.5152 352.2934
vertex 251.5773 0.0000 363.5453
vertex 244.9857 0.0000 383.3006
endloop
endfacet
facet normal -0.4771 0.8660 -0.1496
outer loop
vertex 251.5773 0.0000 363.5453
vertex 258.1590 0.0000 342.5538
vertex 214.2385 -22.5152 352.2934
endloop
endfacet
facet normal -0.4772 0.8659 -0.1499
outer loop
vertex 258.1590 0.0000 342.5538
vertex 220.0151 -22.8889 331.7489
vertex 214.2385 -22.5152 352.2934
endloop
endfacet
facet normal 0.9627 -0.0000 0.2707
outer loop
vertex 214.2385 -22.5152 352.2934
vertex 220.0151 -22.8889 331.7489
vertex 214.2385 22.5152 352.2934
endloop
endfacet
facet normal 0.9627 -0.0000 0.2707
outer loop
vertex 220.0151 -22.8889 331.7489
vertex 220.0151 22.8889 331.7489
vertex 214.2385 22.5152 352.2934
endloop
endfacet
facet normal -0.4770 -0.8660 -0.1499
outer loop
vertex 214.2385 22.5152 352.2934
vertex 220.0151 22.8889 331.7489
vertex 251.5773 0.0000 363.5453
endloop
endfacet
facet normal -0.4772 -0.8659 -0.1496
outer loop
vertex 220.0151 22.8889 331.7489
vertex 258.1590 0.0000 342.5538
vertex 251.5773 0.0000 363.5453
endloop
endfacet
facet normal -0.4796 0.8660 -0.1413
outer loop
vertex 258.1590 0.0000 342.5538
vertex 264.7313 0.0000 320.2503
vertex 220.0151 -22.8889 331.7489
endloop
endfacet
facet normal -0.4797 0.8659 -0.1416
outer loop
vertex 264.7313 0.0000 320.2503
vertex 225.7963 -23.2626 309.8815
vertex 220.0151 -22.8889 331.7489
endloop
endfacet
facet normal 0.9668 -0.0000 0.2556
outer loop
vertex 220.0151 -22.8889 331.7489
vertex 225.7963 -23.2626 309.8815
vertex 220.0151 22.8889 331.7489
endloop
endfacet
facet normal 0.9668 -0.0000 0.2556
outer loop
vertex 225.7963 -23.2626 309.8815
vertex 225.7963 23.2626 309.8815
vertex 220.0151 22.8889 331.7489
endloop
endfacet
facet normal -0.4796 -0.8660 -0.1416
outer loop
vertex 220.0151 22.8889 331.7489
vertex 225.7963 23.2626 309.8815
vertex 258.1590 0.0000 342.5538
endloop
endfacet
facet normal -0.4797 -0.8660 -0.1414
outer loop
vertex 225.7963 23.2626 309.8815
vertex 264.7313 0.0000 320.2503
vertex 258.1590 0.0000 342.5538
endloop
endfacet
facet normal -0.4819 0.8660 -0.1335
outer loop
vertex 264.7313 0.0000 320.2503
vertex 271.2951 0.0000 296.5543
vertex 225.7963 -23.2626 309.8815
endloop
endfacet
facet normal -0.4819 0.8660 -0.1337
outer loop
vertex 271.2951 0.0000 296.5543
vertex 231.5818 -23.6364 286.6102
vertex 225.7963 -23.2626 309.8815
endloop
endfacet
facet normal 0.9705 -0.0000 0.2413
outer loop
vertex 225.7963 -23.2626 309.8815
vertex 231.5818 -23.6364 286.6102
vertex 225.7963 23.2626 309.8815
endloop
endfacet
facet normal 0.9705 -0.0000 0.2413
outer loop
vertex 231.5818 -23.6364 286.6102
vertex 231.5818 23.6364 286.6102
vertex 225.7963 23.2626 309.8815
endloop
endfacet
facet normal -0.4818 -0.8660 -0.1337
outer loop
vertex 225.7963 23.2626 309.8815
vertex 231.5818 23.6364 286.6102
vertex 264.7313 0.0000 320.2503
endloop
endfacet
facet normal -0.4820 -0.8660 -0.1335
outer loop
vertex 231.5818 23.6364 286.6102
vertex 271.2951 0.0000 296.5543
vertex 264.7313 0.0000 320.2503
endloop
endfacet
facet normal -0.4839 0.8660 -0.1260
outer loop
vertex 271.2951 0.0000 296.5543
vertex 277.8509 0.0000 271.3800
vertex 231.5818 -23.6364 286.6102
endloop
endfacet
facet normal -0.4839 0.8660 -0.1262
outer loop
vertex 277.8509 0.0000 271.3800
vertex 237.3713 -24.0101 261.8485
vertex 231.5818 -23.6364 286.6102
endloop
endfacet
facet normal 0.9737 -0.0000 0.2277
outer loop
vertex 231.5818 -23.6364 286.6102
vertex 237.3713 -24.0101 261.8485
vertex 231.5818 23.6364 286.6102
endloop
endfacet
facet normal 0.9737 -0.0000 0.2277
outer loop
vertex 237.3713 -24.0101 261.8485
vertex 237.3713 24.0101 261.8485
vertex 231.5818 23.6364 286.6102
endloop
endfacet
facet normal -0.4838 -0.8660 -0.1262
outer loop
vertex 231.5818 23.6364 286.6102
vertex 237.3713 24.0101 261.8485
vertex 271.2951 0.0000 296.5543
endloop
endfacet
facet normal -0.4840 -0.8660 -0.1260
outer loop
vertex 237.3713 24.0101 261.8485
vertex 277.8509 0.0000 271.3800
vertex 271.2951 0.0000 296.5543
endloop
endfacet
facet normal -0.4857 0.8660 -0.1189
outer loop
vertex 277.8509 0.0000 271.3800
vertex 284.3995 0.0000 244.6360
vertex 237.3713 -24.0101 261.8485
endloop
endfacet
facet normal -0.4857 0.8660 -0.1191
outer loop
vertex 284.3995 0.0000 244.6360
vertex 243.1644 -24.3838 235.5048
vertex 237.3713 -24.0101 261.8485
endloop
endfacet
facet normal 0.9767 -0.0000 0.2148
outer loop
vertex 237.3713 -24.0101 261.8485
vertex 243.1644 -24.3838 235.5048
vertex 237.3713 24.0101 261.8485
endloop
endfacet
facet normal 0.9767 -0.0000 0.2148
outer loop
vertex 243.1644 -24.3838 235.5048
vertex 243.1644 24.3838 235.5048
vertex 237.3713 24.0101 261.8485
endloop
endfacet
facet normal -0.4856 -0.8660 -0.1191
outer loop
vertex 237.3713 24.0101 261.8485
vertex 243.1644 24.3838 235.5048
vertex 277.8509 0.0000 271.3800
endloop
endfacet
facet normal -0.4857 -0.8660 -0.1189
outer loop
vertex 243.1644 24.3838 235.5048
vertex 284.3995 0.0000 244.6360
vertex 277.8509 0.0000 271.3800
endloop
endfacet
facet normal -0.4873 0.8660 -0.1122
outer loop
vertex 284.3995 0.0000 244.6360
vertex 290.9414 0.0000 216.2249
vertex 243.1644 -24.3838 235.5048
endloop
endfacet
facet normal -0.4873 0.8660 -0.1123
outer loop
vertex 290.9414 0.0000 216.2249
vertex 248.9608 -24.7576 207.4816
vertex 243.1644 -24.3838 235.5048
endloop
endfacet
facet normal 0.9793 -0.0000 0.2026
outer loop
vertex 243.1644 -24.3838 235.5048
vertex 248.9608 -24.7576 207.4816
vertex 243.1644 24.3838 235.5048
endloop
endfacet
facet normal 0.9793 -0.0000 0.2026
outer loop
vertex 248.9608 -24.7576 207.4816
vertex 248.9608 24.7576 207.4816
vertex 243.1644 24.3838 235.5048
endloop
endfacet
facet normal -0.4872 -0.8660 -0.1123
outer loop
vertex 243.1644 24.3838 235.5048
vertex 248.9608 24.7576 207.4816
vertex 284.3995 0.0000 244.6360
endloop
endfacet
facet normal -0.4873 -0.8660 -0.1122
outer loop
vertex 248.9608 24.7576 207.4816
vertex 290.9414 0.0000 216.2249
vertex 284.3995 0.0000 244.6360
endloop
endfacet
facet normal -0.4887 0.8660 -0.1058
outer loop
vertex 290.9414 0.0000 216.2249
vertex 297.4771 0.0000 186.0433
vertex 248.9608 -24.7576 207.4816
endloop
endfacet
facet normal -0.4887 0.8660 -0.1060
outer loop
vertex 297.4771 0.0000 186.0433
vertex 254.7603 -25.1313 177.6751
vertex 248.9608 -24.7576 207.4816
endloop
endfacet
facet normal 0.9816 -0.0000 0.1910
outer loop
vertex 248.9608 -24.7576 207.4816
vertex 254.7603 -25.1313 177.6751
vertex 248.9608 24.7576 207.4816
endloop
endfacet
facet normal 0.9816 -0.0000 0.1910
outer loop
vertex 254.7603 -25.1313 177.6751
vertex 254.7603 25.1313 177.6751
vertex 248.9608 24.7576 207.4816
endloop
endfacet
facet normal -0.4887 -0.8660 -0.1059
outer loop
vertex 248.9608 24.7576 207.4816
vertex 254.7603 25.1313 177.6751
vertex 290.9414 0.0000 216.2249
endloop
endfacet
facet normal -0.4887 -0.8660 -0.1058
outer loop
vertex 254.7603 25.1313 177.6751
vertex 297.4771 0.0000 186.0433
vertex 290.9414 0.0000 216.2249
endloop
endfacet
facet normal -0.4900 0.8660 -0.0998
outer loop
vertex 297.4771 0.0000 186.0433
vertex 304.0072 0.0000 153.9811
vertex 254.7603 -25.1313 177.6751
endloop
endfacet
facet normal -0.4900 0.8660 -0.0999
outer loop
vertex 304.0072 0.0000 153.9811
vertex 260.5627 -25.5051 145.9753
vertex 254.7603 -25.1313 177.6751
endloop
endfacet
facet normal 0.9837 -0.0000 0.1800
outer loop
vertex 254.7603 -25.1313 177.6751
vertex 260.5627 -25.5051 145.9753
vertex 254.7603 25.1313 177.6751
endloop
endfacet
facet normal 0.9837 -0.0000 0.1800
outer loop
vertex 260.5627 -25.5051 145.9753
vertex 260.5627 25.5051 145.9753
vertex 254.7603 25.1313 177.6751
endloop
endfacet
facet normal -0.4899 -0.8660 -0.0999
outer loop
vertex 254.7603 25.1313 177.6751
vertex 260.5627 25.5051 145.9753
vertex 297.4771 0.0000 186.0433
endloop
endfacet
facet normal -0.4900 -0.8660 -0.0998
outer loop
vertex 260.5627 25.5051 145.9753
vertex 304.0072 0.0000 153.9811
vertex 297.4771 0.0000 186.0433
endloop
endfacet
facet normal -0.4911 0.8660 -0.0941
outer loop
vertex 304.0072 0.0000 153.9811
vertex 310.5322 0.0000 119.9212
vertex 260.5627 -25.5051 145.9753
endloop
endfacet
facet normal -0.4911 0.8660 -0.0942
outer loop
vertex 310.5322 0.0000 119.9212
vertex 266.3676 -25.8788 112.2651
vertex 260.5627 -25.5051 145.9753
endloop
endfacet
facet normal 0.9855 -0.0000 0.1697
outer loop
vertex 260.5627 -25.5051 145.9753
vertex 266.3676 -25.8788 112.2651
vertex 260.5627 25.5051 145.9753
endloop
endfacet
facet normal 0.9855 -0.0000 0.1697
outer loop
vertex 266.3676 -25.8788 112.2651
vertex 266.3676 25.8788 112.2651
vertex 260.5627 25.5051 145.9753
endloop
endfacet
facet normal -0.4911 -0.8660 -0.0942
outer loop
vertex 260.5627 25.5051 145.9753
vertex 266.3676 25.8788 112.2651
vertex 304.0072 0.0000 153.9811
endloop
endfacet
facet normal -0.4911 -0.8660 -0.0941
outer loop
vertex 266.3676 25.8788 112.2651
vertex 310.5322 0.0000 119.9212
vertex 304.0072 0.0000 153.9811
endloop
endfacet
facet normal -0.4921 0.8660 -0.0887
outer loop
vertex 310.5322 0.0000 119.9212
vertex 317.0526 0.0000 83.7390
vertex 266.3676 -25.8788 112.2651
endloop
endfacet
facet normal -0.4921 0.8660 -0.0888
outer loop
vertex 317.0526 0.0000 83.7390
vertex 272.1748 -26.2525 76.4201
vertex 266.3676 -25.8788 112.2651
endloop
endfacet
facet normal 0.9871 -0.0000 0.1599
outer loop
vertex 266.3676 -25.8788 112.2651
vertex 272.1748 -26.2525 76.4201
vertex 266.3676 25.8788 112.2651
endloop
endfacet
facet normal 0.9871 -0.0000 0.1599
outer loop
vertex 272.1748 -26.2525 76.4201
vertex 272.1748 26.2525 76.4201
vertex 266.3676 25.8788 112.2651
endloop
endfacet
facet normal -0.4921 -0.8660 -0.0887
outer loop
vertex 266.3676 25.8788 112.2651
vertex 272.1748 26.2525 76.4201
vertex 310.5322 0.0000 119.9212
endloop
endfacet
facet normal -0.4921 -0.8660 -0.0887
outer loop
vertex 272.1748 26.2525 76.4201
vertex 317.0526 0.0000 83.7390
vertex 310.5322 0.0000 119.9212
endloop
endfacet
facet normal -0.4930 0.8660 -0.0836
outer loop
vertex 317.0526 0.0000 83.7390
vertex 323.5687 0.0000 45.3021
vertex 272.1748 -26.2525 76.4201
endloop
endfacet
facet normal -0.4930 0.8660 -0.0836
outer loop
vertex 323.5687 0.0000 45.3021
vertex 277.9841 -26.6263 38.3080
vertex 272.1748 -26.2525 76.4201
endloop
endfacet
facet normal 0.9886 -0.0000 0.1507
outer loop
vertex 272.1748 -26.2525 76.4201
vertex 277.9841 -26.6263 38.3080
vertex 272.1748 26.2525 76.4201
endloop
endfacet
facet normal 0.9886 -0.0000 0.1507
outer loop
vertex 277.9841 -26.6263 38.3080
vertex 277.9841 26.6263 38.3080
vertex 272.1748 26.2525 76.4201
endloop
endfacet
facet normal -0.4930 -0.8660 -0.0836
outer loop
vertex 272.1748 26.2525 76.4201
vertex 277.9841 26.6263 38.3080
vertex 317.0526 0.0000 83.7390
endloop
endfacet
facet normal -0.4930 -0.8660 -0.0836
outer loop
vertex 277.9841 26.6263 38.3080
vertex 323.5687 0.0000 45.3021
vertex 317.0526 0.0000 83.7390
endloop
endfacet
facet normal -0.4938 0.8660 -0.0787
outer loop
vertex 323.5687 0.0000 45.3021
vertex 330.0810 0.0000 4.4698
vertex 277.9841 -26.6263 38.3080
endloop
endfacet
facet normal -0.4938 0.8660 -0.0788
outer loop
vertex 330.0810 0.0000 4.4698
vertex 283.7954 -27.0000 -2.2119
vertex 277.9841 -26.6263 38.3080
endloop
endfacet
facet normal 0.9899 -0.0000 0.1420
outer loop
vertex 277.9841 -26.6263 38.3080
vertex 283.7954 -27.0000 -2.2119
vertex 277.9841 26.6263 38.3080
endloop
endfacet
facet normal 0.9899 -0.0000 0.1420
outer loop
vertex 283.7954 -27.0000 -2.2119
vertex 283.7954 27.0000 -2.2119
vertex 277.9841 26.6263 38.3080
endloop
endfacet
facet normal -0.4938 -0.8660 -0.0788
outer loop
vertex 277.9841 26.6263 38.3080
vertex 283.7954 27.0000 -2.2119
vertex 323.5687 0.0000 45.3021
endloop
endfacet
facet normal -0.4938 -0.8660 -0.0788
outer loop
vertex 283.7954 27.0000 -2.2119
vertex 330.0810 0.0000 4.4698
vertex 323.5687 0.0000 45.3021
endloop
endfacet
facet normal -0.1429 0.0000 -0.9897
outer loop
vertex -330.0810 0.0000 4.4698
vertex -283.7954 27.0000 -2.2119
vertex -283.7954 -27.0000 -2.2119
endloop
endfacet
facet normal 0.1429 0.0000 -0.9897
outer loop
vertex 330.0810 0.0000 4.4698
vertex 283.7954 -27.0000 -2.2119
vertex 283.7954 27.0000 -2.2119
endloop
endfacet
endsolid weighted_arch
